%
M48
M72
T01C0.0240
T02C0.0320
T03C0.0394
T04C0.0400
T05C0.0440
T06C0.0590
T07C0.0787
T08C0.0790
%
T01
X4760Y2626
X4760Y4626
T02
X5760Y6626
X6385Y5876
X6385Y4876
X6385Y3876
X6385Y2876
X6010Y1751
X8010Y1751
X9385Y2876
X9385Y3876
X9385Y4876
X9385Y5876
X9010Y7001
X7260Y8626
X6760Y9626
X7760Y11126
X7760Y12126
X7760Y13126
X8760Y13126
X8760Y12126
X8760Y11126
X6760Y11626
X5260Y8626
X5760Y7626
X7010Y7001
X4260Y8626
X3760Y7626
X3760Y6626
X4260Y10626
X11010Y10251
X13010Y10251
X14635Y13751
X15760Y15126
X14635Y16751
X14385Y17501
X13885Y18251
X13540Y19348
X14010Y20376
X15385Y19876
X16260Y20126
X17479Y18653
X15760Y18126
X14885Y18251
X13260Y15001
X11260Y15001
X8010Y20376
X13885Y22501
X14635Y23001
X15385Y22876
X16260Y23126
X13885Y23501
X18969Y20120
X18550Y12131
X12010Y5501
X11760Y6376
X11010Y6876
X11010Y5876
X12010Y3501
T03
X11760Y16376
X12760Y16376
X12760Y18376
X11760Y18376
X10760Y18376
X9760Y18376
X9760Y16376
X10760Y16376
X7760Y16376
X7760Y18376
X7760Y21126
X8760Y21126
X9760Y21126
X10760Y21126
X10760Y23126
X9760Y23126
X8760Y23126
X7760Y23126
X12760Y23126
X12760Y21126
T04
X17760Y20126
X17760Y23126
X17760Y16126
X17760Y13126
X17352Y10190
X16667Y8311
X5760Y12126
X3760Y12126
T05
X10135Y11251
X11135Y12251
X14135Y11251
X15135Y12251
X15760Y5876
X16760Y5876
X14760Y5626
X13760Y5126
X14760Y1626
X15760Y1876
X16760Y1876
X13760Y1126
T06
X18385Y4001
X18385Y10001
T07
X6334Y13641
X6334Y15610
X6334Y17141
X6334Y19110
X6334Y20641
X6334Y22610
X3578Y22610
X3578Y20641
X3578Y19110
X3578Y17141
X3578Y15610
X3578Y13641
T08
X8885Y14751
X9885Y13626
X11760Y19626
X12260Y1626
X18385Y1501
M30
