%
M48
M72
T01C0.0240
T02C0.0320
T03C0.0394
T04C0.0400
T05C0.0440
T06C0.0590
T07C0.0787
T08C0.0790
%
T01
X4760Y2795
X4760Y4795
T02
X6385Y5045
X6385Y4045
X6385Y3045
X6010Y1920
X8010Y1920
X9385Y3045
X9385Y4045
X9385Y5045
X9385Y6045
X9010Y7170
X7260Y8795
X6760Y9795
X7760Y11295
X7760Y12295
X7760Y13295
X8760Y13295
X8760Y12295
X8760Y11295
X6760Y11795
X5260Y8795
X5760Y7795
X5760Y6795
X6385Y6045
X7010Y7170
X4260Y8795
X3760Y7795
X3760Y6795
X4260Y10795
X7385Y15420
X8010Y20545
X11385Y15420
X11552Y13713
X12967Y15127
X14510Y16545
X14885Y17920
X14385Y18670
X13885Y17920
X13540Y19517
X14010Y20545
X15385Y20045
X16260Y20295
X17479Y18823
X16010Y18045
X16010Y15045
X14510Y13545
X13010Y10420
X11010Y10420
X11010Y7045
X11010Y6045
X11760Y6545
X12010Y5670
X12010Y3670
X18550Y12300
X18969Y20290
X16260Y23295
X15385Y23045
X14385Y22670
X13635Y23170
X14385Y23670
T03
X12760Y23295
X12760Y21295
X10760Y21295
X9760Y21295
X8760Y21295
X7760Y21295
X7760Y23295
X8760Y23295
X9760Y23295
X10760Y23295
X10760Y18545
X11760Y18545
X12760Y18545
X12760Y16545
X11760Y16545
X10760Y16545
X9760Y16545
X9760Y18545
X7760Y18545
X7760Y16545
T04
X5760Y12295
X3760Y12295
X16667Y8480
X17352Y10360
X17760Y13295
X17760Y16295
X17760Y20295
X17760Y23295
T05
X15135Y12420
X14135Y11420
X11135Y12420
X10135Y11420
X13760Y5295
X14760Y5795
X15760Y6045
X16760Y6045
X16760Y2045
X15760Y2045
X14760Y1795
X13760Y1295
T06
X18385Y4170
X18385Y10170
T07
X6334Y13811
X6334Y15779
X6334Y17311
X6334Y19279
X6334Y20811
X6334Y22779
X3578Y22779
X3578Y20811
X3578Y19279
X3578Y17311
X3578Y15779
X3578Y13811
T08
X8885Y14920
X9885Y13795
X11260Y19795
X12260Y1795
X18385Y1670
M30
