G75*
%MOIN*%
%OFA0B0*%
%FSLAX24Y24*%
%IPPOS*%
%LPD*%
%AMOC8*
5,1,8,0,0,1.08239X$1,22.5*
%
%ADD10C,0.0000*%
%ADD11C,0.0051*%
%ADD12C,0.0060*%
%ADD13C,0.0080*%
%ADD14C,0.0020*%
%ADD15C,0.0120*%
%ADD16R,0.2000X0.0200*%
%ADD17R,0.0500X0.0450*%
%ADD18R,0.1000X0.0200*%
%ADD19R,0.0300X0.0750*%
%ADD20R,0.0250X0.1000*%
%ADD21R,0.1500X0.0250*%
%ADD22R,0.1020X0.0320*%
%ADD23R,0.0200X0.1000*%
%ADD24R,0.0750X0.0300*%
%ADD25C,0.0240*%
%ADD26R,0.0700X0.0150*%
%ADD27R,0.0200X0.0550*%
%ADD28R,0.0197X0.0787*%
%ADD29R,0.1181X0.0197*%
D10*
X002760Y000126D02*
X002760Y024122D01*
X019630Y024122D01*
X019630Y000126D01*
X002760Y000126D01*
D11*
X000492Y000126D01*
X001260Y000126D02*
X001157Y001149D01*
X001134Y001149D02*
X001385Y001149D01*
X001260Y000126D01*
X001362Y001149D01*
X001311Y001149D02*
X001260Y000126D01*
X001208Y001149D01*
X001134Y001149D02*
X001260Y000126D01*
X001260Y024122D01*
X001362Y023098D01*
X001385Y023098D02*
X001260Y024122D01*
X001157Y023098D01*
X001134Y023098D02*
X001385Y023098D01*
X001311Y023098D02*
X001260Y024122D01*
X001208Y023098D01*
X001134Y023098D02*
X001260Y024122D01*
X000492Y024122D02*
X002760Y024122D01*
X002760Y026393D01*
X002760Y025626D02*
X003783Y025523D01*
X003783Y025500D02*
X002760Y025626D01*
X003783Y025728D01*
X003783Y025751D02*
X003783Y025500D01*
X003783Y025574D02*
X002760Y025626D01*
X003783Y025677D01*
X003783Y025751D02*
X002760Y025626D01*
X019630Y025626D01*
X018606Y025523D01*
X018606Y025500D02*
X019630Y025626D01*
X018606Y025728D01*
X018606Y025751D02*
X018606Y025500D01*
X018606Y025574D02*
X019630Y025626D01*
X018606Y025677D01*
X018606Y025751D02*
X019630Y025626D01*
X019630Y026393D02*
X019630Y024122D01*
D12*
X018060Y024276D02*
X017460Y024276D01*
X017760Y024576D02*
X017760Y023976D01*
X016710Y022776D02*
X016710Y022626D01*
X016660Y022576D01*
X016660Y020676D01*
X016710Y020626D01*
X016710Y020476D01*
X016708Y020459D01*
X016704Y020442D01*
X016697Y020426D01*
X016687Y020412D01*
X016674Y020399D01*
X016660Y020389D01*
X016644Y020382D01*
X016627Y020378D01*
X016610Y020376D01*
X015910Y020376D02*
X015893Y020378D01*
X015876Y020382D01*
X015860Y020389D01*
X015846Y020399D01*
X015833Y020412D01*
X015823Y020426D01*
X015816Y020442D01*
X015812Y020459D01*
X015810Y020476D01*
X015810Y020626D01*
X015860Y020676D01*
X015860Y022576D01*
X015810Y022626D01*
X015810Y022776D01*
X015812Y022793D01*
X015816Y022810D01*
X015823Y022826D01*
X015833Y022840D01*
X015846Y022853D01*
X015860Y022863D01*
X015876Y022870D01*
X015893Y022874D01*
X015910Y022876D01*
X016610Y022876D02*
X016627Y022874D01*
X016644Y022870D01*
X016660Y022863D01*
X016674Y022853D01*
X016687Y022840D01*
X016697Y022826D01*
X016704Y022810D01*
X016708Y022793D01*
X016710Y022776D01*
X017010Y021976D02*
X017760Y021976D01*
X018510Y021976D01*
X018510Y021726D01*
X017010Y021726D01*
X017010Y021976D01*
X017760Y021976D02*
X017760Y022426D01*
X017760Y021376D02*
X017760Y020826D01*
X015735Y020776D02*
X015035Y020776D01*
X015035Y021976D01*
X015735Y021976D01*
X015735Y020776D01*
X015385Y021176D02*
X015385Y021326D01*
X015185Y021326D01*
X015185Y021426D01*
X015385Y021326D02*
X015185Y021726D01*
X015585Y021726D01*
X015385Y021326D01*
X015585Y021326D01*
X015385Y021326D02*
X015385Y021876D01*
X013785Y021955D02*
X013785Y022113D01*
X013235Y022176D02*
X013235Y023825D01*
X013785Y023888D02*
X013785Y024046D01*
X013235Y023826D02*
X013286Y023863D01*
X013339Y023898D01*
X013395Y023930D01*
X013452Y023958D01*
X013511Y023982D01*
X013571Y024003D01*
X013632Y024020D01*
X013694Y024034D01*
X013757Y024043D01*
X013820Y024049D01*
X013884Y024051D01*
X013948Y024049D01*
X014011Y024043D01*
X014074Y024034D01*
X014136Y024021D01*
X014197Y024003D01*
X014257Y023983D01*
X014316Y023958D01*
X014373Y023930D01*
X014429Y023899D01*
X014482Y023865D01*
X014533Y023827D01*
X014582Y023786D01*
X014628Y023742D01*
X014672Y023696D01*
X014713Y023647D01*
X014750Y023596D01*
X014785Y023542D01*
X014816Y023487D01*
X014844Y023430D01*
X014868Y023371D01*
X014888Y023311D01*
X014888Y022690D02*
X014868Y022630D01*
X014844Y022571D01*
X014816Y022514D01*
X014785Y022459D01*
X014750Y022405D01*
X014713Y022354D01*
X014672Y022305D01*
X014628Y022259D01*
X014582Y022215D01*
X014533Y022174D01*
X014482Y022136D01*
X014429Y022102D01*
X014373Y022070D01*
X014316Y022043D01*
X014257Y022018D01*
X014197Y021998D01*
X014136Y021980D01*
X014074Y021967D01*
X014011Y021958D01*
X013948Y021952D01*
X013884Y021950D01*
X013820Y021952D01*
X013757Y021958D01*
X013694Y021967D01*
X013632Y021981D01*
X013571Y021998D01*
X013511Y022019D01*
X013452Y022043D01*
X013395Y022071D01*
X013339Y022103D01*
X013286Y022138D01*
X013235Y022175D01*
X013560Y018901D02*
X015209Y018901D01*
X015272Y018351D02*
X015430Y018351D01*
X015410Y017876D02*
X015393Y017874D01*
X015376Y017870D01*
X015360Y017863D01*
X015346Y017853D01*
X015333Y017840D01*
X015323Y017826D01*
X015316Y017810D01*
X015312Y017793D01*
X015310Y017776D01*
X015310Y017626D01*
X015360Y017576D01*
X015360Y015676D01*
X015310Y015626D01*
X015310Y015476D01*
X015312Y015459D01*
X015316Y015442D01*
X015323Y015426D01*
X015333Y015412D01*
X015346Y015399D01*
X015360Y015389D01*
X015376Y015382D01*
X015393Y015378D01*
X015410Y015376D01*
X014835Y015201D02*
X014635Y015201D01*
X014435Y015201D01*
X014435Y015301D01*
X014635Y015201D02*
X014635Y015051D01*
X014635Y015201D02*
X014435Y015601D01*
X014835Y015601D01*
X014635Y015201D01*
X014635Y015751D01*
X014985Y015851D02*
X014285Y015851D01*
X014285Y014651D01*
X014985Y014651D01*
X014985Y015851D01*
X016110Y015376D02*
X016127Y015378D01*
X016144Y015382D01*
X016160Y015389D01*
X016174Y015399D01*
X016187Y015412D01*
X016197Y015426D01*
X016204Y015442D01*
X016208Y015459D01*
X016210Y015476D01*
X016210Y015626D01*
X016160Y015676D01*
X016160Y017576D01*
X016210Y017626D01*
X016210Y017776D01*
X016208Y017793D01*
X016204Y017810D01*
X016197Y017826D01*
X016187Y017840D01*
X016174Y017853D01*
X016160Y017863D01*
X016144Y017870D01*
X016127Y017874D01*
X016110Y017876D01*
X017460Y017276D02*
X018060Y017276D01*
X017760Y017576D02*
X017760Y016976D01*
X017760Y015426D02*
X017760Y014976D01*
X017010Y014976D01*
X017010Y014726D01*
X018510Y014726D01*
X018510Y014976D01*
X017760Y014976D01*
X017760Y014376D02*
X017760Y013826D01*
X016502Y010190D02*
X016504Y010248D01*
X016510Y010306D01*
X016520Y010363D01*
X016534Y010419D01*
X016551Y010475D01*
X016572Y010529D01*
X016597Y010581D01*
X016626Y010632D01*
X016658Y010680D01*
X016693Y010726D01*
X016731Y010770D01*
X016772Y010811D01*
X016816Y010849D01*
X016862Y010884D01*
X016910Y010916D01*
X016961Y010945D01*
X017013Y010970D01*
X017067Y010991D01*
X017123Y011008D01*
X017179Y011022D01*
X017236Y011032D01*
X017294Y011038D01*
X017352Y011040D01*
X017410Y011038D01*
X017468Y011032D01*
X017525Y011022D01*
X017581Y011008D01*
X017637Y010991D01*
X017691Y010970D01*
X017743Y010945D01*
X017794Y010916D01*
X017842Y010884D01*
X017888Y010849D01*
X017932Y010811D01*
X017973Y010770D01*
X018011Y010726D01*
X018046Y010680D01*
X018078Y010632D01*
X018107Y010581D01*
X018132Y010529D01*
X018153Y010475D01*
X018170Y010419D01*
X018184Y010363D01*
X018194Y010306D01*
X018200Y010248D01*
X018202Y010190D01*
X018200Y010132D01*
X018194Y010074D01*
X018184Y010017D01*
X018170Y009961D01*
X018153Y009905D01*
X018132Y009851D01*
X018107Y009799D01*
X018078Y009748D01*
X018046Y009700D01*
X018011Y009654D01*
X017973Y009610D01*
X017932Y009569D01*
X017888Y009531D01*
X017842Y009496D01*
X017794Y009464D01*
X017743Y009435D01*
X017691Y009410D01*
X017637Y009389D01*
X017581Y009372D01*
X017525Y009358D01*
X017468Y009348D01*
X017410Y009342D01*
X017352Y009340D01*
X017294Y009342D01*
X017236Y009348D01*
X017179Y009358D01*
X017123Y009372D01*
X017067Y009389D01*
X017013Y009410D01*
X016961Y009435D01*
X016910Y009464D01*
X016862Y009496D01*
X016816Y009531D01*
X016772Y009569D01*
X016731Y009610D01*
X016693Y009654D01*
X016658Y009700D01*
X016626Y009748D01*
X016597Y009799D01*
X016572Y009851D01*
X016551Y009905D01*
X016534Y009961D01*
X016520Y010017D01*
X016510Y010074D01*
X016504Y010132D01*
X016502Y010190D01*
X017385Y008901D02*
X017385Y005101D01*
X019385Y005101D01*
X019385Y008901D01*
X017385Y008901D01*
X018385Y008001D02*
X018385Y007001D01*
X018635Y007501D01*
X018135Y007501D01*
X018385Y007001D01*
X018635Y007001D01*
X018385Y007001D02*
X018135Y007001D01*
X018385Y007001D02*
X018385Y006551D01*
X017260Y004676D02*
X016260Y004676D01*
X016260Y003076D01*
X017260Y003076D01*
X017260Y004676D01*
X016760Y004126D02*
X016760Y003876D01*
X016510Y003876D01*
X016760Y003876D02*
X017010Y003876D01*
X016760Y003876D02*
X017010Y003476D01*
X016510Y003476D01*
X016760Y003876D01*
X016760Y003276D01*
X016260Y003076D02*
X016260Y004676D01*
X015260Y004676D01*
X015260Y003076D01*
X016260Y003076D01*
X016010Y003476D02*
X015760Y003876D01*
X015510Y003876D01*
X015760Y003876D02*
X015760Y004126D01*
X015760Y003876D02*
X016010Y003876D01*
X015760Y003876D02*
X015760Y003276D01*
X016010Y003476D02*
X015510Y003476D01*
X015760Y003876D01*
X015260Y004426D02*
X014260Y004426D01*
X014260Y002826D01*
X015260Y002826D01*
X015260Y004426D01*
X014760Y003876D02*
X014760Y003626D01*
X014510Y003626D01*
X014760Y003626D02*
X015010Y003626D01*
X014760Y003626D02*
X015010Y003226D01*
X014510Y003226D01*
X014760Y003626D01*
X014760Y003026D01*
X014010Y003126D02*
X013760Y003126D01*
X013510Y003126D01*
X013760Y003126D02*
X013510Y002726D01*
X014010Y002726D01*
X013760Y003126D01*
X013760Y002526D01*
X013260Y002326D02*
X014260Y002326D01*
X014260Y003926D01*
X013260Y003926D01*
X013260Y002326D01*
X013760Y003126D02*
X013760Y003376D01*
X010910Y005330D02*
X010910Y005488D01*
X010360Y005551D02*
X010360Y007200D01*
X010910Y007263D02*
X010910Y007421D01*
X010910Y006488D02*
X010910Y006263D01*
X010360Y005550D02*
X010411Y005513D01*
X010464Y005478D01*
X010520Y005446D01*
X010577Y005418D01*
X010636Y005394D01*
X010696Y005373D01*
X010757Y005356D01*
X010819Y005342D01*
X010882Y005333D01*
X010945Y005327D01*
X011009Y005325D01*
X011073Y005327D01*
X011136Y005333D01*
X011199Y005342D01*
X011261Y005355D01*
X011322Y005373D01*
X011382Y005393D01*
X011441Y005418D01*
X011498Y005445D01*
X011554Y005477D01*
X011607Y005511D01*
X011658Y005549D01*
X011707Y005590D01*
X011753Y005634D01*
X011797Y005680D01*
X011838Y005729D01*
X011875Y005780D01*
X011910Y005834D01*
X011941Y005889D01*
X011969Y005946D01*
X011993Y006005D01*
X012013Y006065D01*
X012013Y006686D02*
X011993Y006746D01*
X011969Y006805D01*
X011941Y006862D01*
X011910Y006917D01*
X011875Y006971D01*
X011838Y007022D01*
X011797Y007071D01*
X011753Y007117D01*
X011707Y007161D01*
X011658Y007202D01*
X011607Y007240D01*
X011554Y007274D01*
X011498Y007306D01*
X011441Y007333D01*
X011382Y007358D01*
X011322Y007378D01*
X011261Y007396D01*
X011199Y007409D01*
X011136Y007418D01*
X011073Y007424D01*
X011009Y007426D01*
X010945Y007424D01*
X010882Y007418D01*
X010819Y007409D01*
X010757Y007395D01*
X010696Y007378D01*
X010636Y007357D01*
X010577Y007333D01*
X010520Y007305D01*
X010464Y007273D01*
X010411Y007238D01*
X010360Y007201D01*
X009460Y007401D02*
X009460Y006601D01*
X009458Y006584D01*
X009454Y006567D01*
X009447Y006551D01*
X009437Y006537D01*
X009424Y006524D01*
X009410Y006514D01*
X009394Y006507D01*
X009377Y006503D01*
X009360Y006501D01*
X006660Y006501D01*
X006643Y006503D01*
X006626Y006507D01*
X006610Y006514D01*
X006596Y006524D01*
X006583Y006537D01*
X006573Y006551D01*
X006566Y006567D01*
X006562Y006584D01*
X006560Y006601D01*
X006560Y007401D01*
X006562Y007418D01*
X006566Y007435D01*
X006573Y007451D01*
X006583Y007465D01*
X006596Y007478D01*
X006610Y007488D01*
X006626Y007495D01*
X006643Y007499D01*
X006660Y007501D01*
X009360Y007501D01*
X009377Y007499D01*
X009394Y007495D01*
X009410Y007488D01*
X009424Y007478D01*
X009437Y007465D01*
X009447Y007451D01*
X009454Y007435D01*
X009458Y007418D01*
X009460Y007401D01*
X008610Y007001D02*
X008130Y007001D01*
X007880Y007001D02*
X007410Y007001D01*
X007635Y006376D02*
X006785Y006376D01*
X006785Y002376D01*
X008985Y002376D01*
X008985Y006376D01*
X008135Y006376D01*
X008133Y006346D01*
X008128Y006316D01*
X008119Y006287D01*
X008106Y006260D01*
X008091Y006234D01*
X008072Y006210D01*
X008051Y006189D01*
X008027Y006170D01*
X008001Y006155D01*
X007974Y006142D01*
X007945Y006133D01*
X007915Y006128D01*
X007885Y006126D01*
X007855Y006128D01*
X007825Y006133D01*
X007796Y006142D01*
X007769Y006155D01*
X007743Y006170D01*
X007719Y006189D01*
X007698Y006210D01*
X007679Y006234D01*
X007664Y006260D01*
X007651Y006287D01*
X007642Y006316D01*
X007637Y006346D01*
X007635Y006376D01*
X007610Y008126D02*
X004910Y008126D01*
X004893Y008128D01*
X004876Y008132D01*
X004860Y008139D01*
X004846Y008149D01*
X004833Y008162D01*
X004823Y008176D01*
X004816Y008192D01*
X004812Y008209D01*
X004810Y008226D01*
X004810Y009026D01*
X004812Y009043D01*
X004816Y009060D01*
X004823Y009076D01*
X004833Y009090D01*
X004846Y009103D01*
X004860Y009113D01*
X004876Y009120D01*
X004893Y009124D01*
X004910Y009126D01*
X007610Y009126D01*
X007627Y009124D01*
X007644Y009120D01*
X007660Y009113D01*
X007674Y009103D01*
X007687Y009090D01*
X007697Y009076D01*
X007704Y009060D01*
X007708Y009043D01*
X007710Y009026D01*
X007710Y008226D01*
X007708Y008209D01*
X007704Y008192D01*
X007697Y008176D01*
X007687Y008162D01*
X007674Y008149D01*
X007660Y008139D01*
X007644Y008132D01*
X007627Y008128D01*
X007610Y008126D01*
X006860Y008626D02*
X006380Y008626D01*
X006130Y008626D02*
X005660Y008626D01*
X006260Y009276D02*
X006260Y011976D01*
X006262Y011993D01*
X006266Y012010D01*
X006273Y012026D01*
X006283Y012040D01*
X006296Y012053D01*
X006310Y012063D01*
X006326Y012070D01*
X006343Y012074D01*
X006360Y012076D01*
X007160Y012076D01*
X007177Y012074D01*
X007194Y012070D01*
X007210Y012063D01*
X007224Y012053D01*
X007237Y012040D01*
X007247Y012026D01*
X007254Y012010D01*
X007258Y011993D01*
X007260Y011976D01*
X007260Y009276D01*
X007258Y009259D01*
X007254Y009242D01*
X007247Y009226D01*
X007237Y009212D01*
X007224Y009199D01*
X007210Y009189D01*
X007194Y009182D01*
X007177Y009178D01*
X007160Y009176D01*
X006360Y009176D01*
X006343Y009178D01*
X006326Y009182D01*
X006310Y009189D01*
X006296Y009199D01*
X006283Y009212D01*
X006273Y009226D01*
X006266Y009242D01*
X006262Y009259D01*
X006260Y009276D01*
X006760Y010026D02*
X006760Y010506D01*
X006760Y010756D02*
X006760Y011226D01*
X007360Y010726D02*
X009160Y010726D01*
X009160Y013526D01*
X007360Y013526D01*
X007360Y010726D01*
X007510Y011426D02*
X007510Y011776D01*
X007510Y012476D02*
X007510Y012826D01*
X008060Y013376D02*
X008460Y013376D01*
X009010Y012826D02*
X009010Y012476D01*
X009010Y011776D02*
X009010Y011426D01*
X008460Y010876D02*
X008060Y010876D01*
X008788Y011525D02*
X008824Y011558D01*
X008857Y011594D01*
X008889Y011632D01*
X008918Y011671D01*
X008945Y011712D01*
X008969Y011755D01*
X008990Y011799D01*
X007732Y011525D02*
X007696Y011558D01*
X007663Y011594D01*
X007631Y011632D01*
X007602Y011671D01*
X007575Y011712D01*
X007551Y011755D01*
X007530Y011799D01*
X008096Y011343D02*
X008150Y011334D01*
X008205Y011328D01*
X008260Y011326D01*
X008315Y011328D01*
X008370Y011334D01*
X008424Y011343D01*
X008773Y012526D02*
X008741Y012563D01*
X008706Y012599D01*
X008669Y012631D01*
X008630Y012660D01*
X008589Y012687D01*
X008545Y012710D01*
X008500Y012730D01*
X008454Y012746D01*
X008406Y012759D01*
X008358Y012769D01*
X008309Y012774D01*
X008260Y012776D01*
X008211Y012774D01*
X008162Y012769D01*
X008114Y012759D01*
X008066Y012746D01*
X008020Y012730D01*
X007975Y012710D01*
X007931Y012687D01*
X007890Y012660D01*
X007851Y012631D01*
X007814Y012599D01*
X007779Y012563D01*
X007747Y012526D01*
X008788Y012727D02*
X008824Y012694D01*
X008857Y012658D01*
X008889Y012620D01*
X008918Y012581D01*
X008945Y012540D01*
X008969Y012497D01*
X008990Y012453D01*
X007732Y012727D02*
X007696Y012694D01*
X007663Y012658D01*
X007631Y012620D01*
X007602Y012581D01*
X007575Y012540D01*
X007551Y012497D01*
X007530Y012453D01*
X007747Y011726D02*
X007779Y011689D01*
X007814Y011653D01*
X007851Y011621D01*
X007890Y011592D01*
X007931Y011565D01*
X007975Y011542D01*
X008020Y011522D01*
X008066Y011506D01*
X008114Y011493D01*
X008162Y011483D01*
X008211Y011478D01*
X008260Y011476D01*
X008309Y011478D01*
X008358Y011483D01*
X008406Y011493D01*
X008454Y011506D01*
X008500Y011522D01*
X008545Y011542D01*
X008589Y011565D01*
X008630Y011592D01*
X008669Y011621D01*
X008706Y011653D01*
X008741Y011689D01*
X008773Y011726D01*
X008424Y012909D02*
X008370Y012918D01*
X008315Y012924D01*
X008260Y012926D01*
X008205Y012924D01*
X008150Y012918D01*
X008096Y012909D01*
X011335Y011751D02*
X011335Y010751D01*
X012935Y010751D01*
X012935Y011751D01*
X011335Y011751D01*
X011735Y011501D02*
X012135Y011251D01*
X012135Y011001D01*
X012135Y011251D02*
X012135Y011501D01*
X012135Y011251D02*
X011735Y011001D01*
X011735Y011501D01*
X011535Y011251D02*
X012135Y011251D01*
X012385Y011251D01*
X012335Y011751D02*
X013935Y011751D01*
X013935Y012751D01*
X012335Y012751D01*
X012335Y011751D01*
X012735Y012001D02*
X013135Y012251D01*
X013135Y012501D01*
X013135Y012251D02*
X013135Y012001D01*
X013135Y012251D02*
X012535Y012251D01*
X012735Y012001D02*
X012735Y012501D01*
X013135Y012251D01*
X013385Y012251D01*
X014074Y017248D02*
X014014Y017268D01*
X013955Y017292D01*
X013898Y017320D01*
X013843Y017351D01*
X013789Y017386D01*
X013738Y017423D01*
X013689Y017464D01*
X013643Y017508D01*
X013599Y017554D01*
X013558Y017603D01*
X013520Y017654D01*
X013486Y017707D01*
X013454Y017763D01*
X013427Y017820D01*
X013402Y017879D01*
X013382Y017939D01*
X013364Y018000D01*
X013351Y018062D01*
X013342Y018125D01*
X013336Y018188D01*
X013334Y018252D01*
X013336Y018316D01*
X013342Y018379D01*
X013351Y018442D01*
X013365Y018504D01*
X013382Y018565D01*
X013403Y018625D01*
X013427Y018684D01*
X013455Y018741D01*
X013487Y018797D01*
X013522Y018850D01*
X013559Y018901D01*
X013497Y018351D02*
X013339Y018351D01*
X014695Y017248D02*
X014755Y017268D01*
X014814Y017292D01*
X014871Y017320D01*
X014926Y017351D01*
X014980Y017386D01*
X015031Y017423D01*
X015080Y017464D01*
X015126Y017508D01*
X015170Y017554D01*
X015211Y017603D01*
X015249Y017654D01*
X015283Y017707D01*
X015314Y017763D01*
X015342Y017820D01*
X015367Y017879D01*
X015387Y017939D01*
X015405Y018000D01*
X015418Y018062D01*
X015427Y018125D01*
X015433Y018188D01*
X015435Y018252D01*
X015433Y018316D01*
X015427Y018379D01*
X015418Y018442D01*
X015404Y018504D01*
X015387Y018565D01*
X015366Y018625D01*
X015342Y018684D01*
X015314Y018741D01*
X015282Y018797D01*
X015247Y018850D01*
X015210Y018901D01*
X012544Y025882D02*
X012331Y025882D01*
X012224Y025989D01*
X012224Y026202D02*
X012438Y026309D01*
X012544Y026309D01*
X012651Y026202D01*
X012651Y025989D01*
X012544Y025882D01*
X012224Y026202D02*
X012224Y026522D01*
X012651Y026522D01*
X012007Y026416D02*
X012007Y026309D01*
X011900Y026202D01*
X011686Y026202D01*
X011580Y026309D01*
X011580Y026416D01*
X011686Y026522D01*
X011900Y026522D01*
X012007Y026416D01*
X011900Y026202D02*
X012007Y026095D01*
X012007Y025989D01*
X011900Y025882D01*
X011686Y025882D01*
X011580Y025989D01*
X011580Y026095D01*
X011686Y026202D01*
X011364Y025989D02*
X011364Y025882D01*
X011257Y025882D01*
X011257Y025989D01*
X011364Y025989D01*
X011040Y025882D02*
X010613Y025882D01*
X011040Y026309D01*
X011040Y026416D01*
X010933Y026522D01*
X010720Y026522D01*
X010613Y026416D01*
X010395Y026202D02*
X009968Y026202D01*
X010289Y026522D01*
X010289Y025882D01*
X000897Y013580D02*
X001003Y013474D01*
X001003Y013260D01*
X000897Y013153D01*
X000683Y013153D02*
X000576Y013367D01*
X000576Y013474D01*
X000683Y013580D01*
X000897Y013580D01*
X000683Y013153D02*
X000363Y013153D01*
X000363Y013580D01*
X000470Y012936D02*
X000363Y012829D01*
X000363Y012615D01*
X000470Y012509D01*
X000576Y012509D01*
X000683Y012615D01*
X000683Y012936D01*
X000470Y012936D02*
X000897Y012936D01*
X001003Y012829D01*
X001003Y012615D01*
X000897Y012509D01*
X000897Y012293D02*
X001003Y012293D01*
X001003Y012186D01*
X000897Y012186D01*
X000897Y012293D01*
X000897Y011969D02*
X001003Y011862D01*
X001003Y011649D01*
X000897Y011542D01*
X000470Y011969D01*
X000897Y011969D01*
X000897Y011542D02*
X000470Y011542D01*
X000363Y011649D01*
X000363Y011862D01*
X000470Y011969D01*
X000363Y011324D02*
X000470Y011111D01*
X000683Y010897D01*
X000683Y011218D01*
X000790Y011324D01*
X000897Y011324D01*
X001003Y011218D01*
X001003Y011004D01*
X000897Y010897D01*
X000683Y010897D01*
X003760Y010976D02*
X003760Y008276D01*
X003762Y008259D01*
X003766Y008242D01*
X003773Y008226D01*
X003783Y008212D01*
X003796Y008199D01*
X003810Y008189D01*
X003826Y008182D01*
X003843Y008178D01*
X003860Y008176D01*
X004660Y008176D01*
X004677Y008178D01*
X004694Y008182D01*
X004710Y008189D01*
X004724Y008199D01*
X004737Y008212D01*
X004747Y008226D01*
X004754Y008242D01*
X004758Y008259D01*
X004760Y008276D01*
X004760Y010976D01*
X004758Y010993D01*
X004754Y011010D01*
X004747Y011026D01*
X004737Y011040D01*
X004724Y011053D01*
X004710Y011063D01*
X004694Y011070D01*
X004677Y011074D01*
X004660Y011076D01*
X003860Y011076D01*
X003843Y011074D01*
X003826Y011070D01*
X003810Y011063D01*
X003796Y011053D01*
X003783Y011040D01*
X003773Y011026D01*
X003766Y011010D01*
X003762Y010993D01*
X003760Y010976D01*
X004260Y010226D02*
X004260Y009756D01*
X004260Y009506D02*
X004260Y009026D01*
X004110Y007076D02*
X005410Y007076D01*
X005436Y007074D01*
X005462Y007069D01*
X005487Y007061D01*
X005510Y007049D01*
X005532Y007035D01*
X005551Y007017D01*
X005569Y006998D01*
X005583Y006976D01*
X005595Y006953D01*
X005603Y006928D01*
X005608Y006902D01*
X005610Y006876D01*
X005260Y006626D02*
X004880Y006626D01*
X004630Y006626D02*
X004260Y006626D01*
X003910Y006876D02*
X003912Y006902D01*
X003917Y006928D01*
X003925Y006953D01*
X003937Y006976D01*
X003951Y006998D01*
X003969Y007017D01*
X003988Y007035D01*
X004010Y007049D01*
X004033Y007061D01*
X004058Y007069D01*
X004084Y007074D01*
X004110Y007076D01*
X003910Y006376D02*
X003912Y006350D01*
X003917Y006324D01*
X003925Y006299D01*
X003937Y006276D01*
X003951Y006254D01*
X003969Y006235D01*
X003988Y006217D01*
X004010Y006203D01*
X004033Y006191D01*
X004058Y006183D01*
X004084Y006178D01*
X004110Y006176D01*
X005410Y006176D01*
X005436Y006178D01*
X005462Y006183D01*
X005487Y006191D01*
X005510Y006203D01*
X005532Y006217D01*
X005551Y006235D01*
X005569Y006254D01*
X005583Y006276D01*
X005595Y006299D01*
X005603Y006324D01*
X005608Y006350D01*
X005610Y006376D01*
X005660Y004976D02*
X005660Y002276D01*
X006360Y002201D02*
X007660Y002201D01*
X007686Y002199D01*
X007712Y002194D01*
X007737Y002186D01*
X007760Y002174D01*
X007782Y002160D01*
X007801Y002142D01*
X007819Y002123D01*
X007833Y002101D01*
X007845Y002078D01*
X007853Y002053D01*
X007858Y002027D01*
X007860Y002001D01*
X007510Y001751D02*
X007140Y001751D01*
X006890Y001751D02*
X006510Y001751D01*
X006160Y002001D02*
X006162Y002027D01*
X006167Y002053D01*
X006175Y002078D01*
X006187Y002101D01*
X006201Y002123D01*
X006219Y002142D01*
X006238Y002160D01*
X006260Y002174D01*
X006283Y002186D01*
X006308Y002194D01*
X006334Y002199D01*
X006360Y002201D01*
X006160Y001501D02*
X006162Y001475D01*
X006167Y001449D01*
X006175Y001424D01*
X006187Y001401D01*
X006201Y001379D01*
X006219Y001360D01*
X006238Y001342D01*
X006260Y001328D01*
X006283Y001316D01*
X006308Y001308D01*
X006334Y001303D01*
X006360Y001301D01*
X007660Y001301D01*
X007686Y001303D01*
X007712Y001308D01*
X007737Y001316D01*
X007760Y001328D01*
X007782Y001342D01*
X007801Y001360D01*
X007819Y001379D01*
X007833Y001401D01*
X007845Y001424D01*
X007853Y001449D01*
X007858Y001475D01*
X007860Y001501D01*
X005660Y002276D02*
X005658Y002217D01*
X005652Y002159D01*
X005643Y002100D01*
X005629Y002043D01*
X005612Y001987D01*
X005591Y001932D01*
X005567Y001878D01*
X005539Y001826D01*
X005508Y001776D01*
X005474Y001728D01*
X005437Y001683D01*
X005396Y001640D01*
X005353Y001599D01*
X005308Y001562D01*
X005260Y001528D01*
X005210Y001497D01*
X005158Y001469D01*
X005104Y001445D01*
X005049Y001424D01*
X004993Y001407D01*
X004936Y001393D01*
X004877Y001384D01*
X004819Y001378D01*
X004760Y001376D01*
X004701Y001378D01*
X004643Y001384D01*
X004584Y001393D01*
X004527Y001407D01*
X004471Y001424D01*
X004416Y001445D01*
X004362Y001469D01*
X004310Y001497D01*
X004260Y001528D01*
X004212Y001562D01*
X004167Y001599D01*
X004124Y001640D01*
X004083Y001683D01*
X004046Y001728D01*
X004012Y001776D01*
X003981Y001826D01*
X003953Y001878D01*
X003929Y001932D01*
X003908Y001987D01*
X003891Y002043D01*
X003877Y002100D01*
X003868Y002159D01*
X003862Y002217D01*
X003860Y002276D01*
X003860Y004976D01*
X003862Y005035D01*
X003868Y005093D01*
X003877Y005152D01*
X003891Y005209D01*
X003908Y005265D01*
X003929Y005320D01*
X003953Y005374D01*
X003981Y005426D01*
X004012Y005476D01*
X004046Y005524D01*
X004083Y005569D01*
X004124Y005612D01*
X004167Y005653D01*
X004212Y005690D01*
X004260Y005724D01*
X004310Y005755D01*
X004362Y005783D01*
X004416Y005807D01*
X004471Y005828D01*
X004527Y005845D01*
X004584Y005859D01*
X004643Y005868D01*
X004701Y005874D01*
X004760Y005876D01*
X004819Y005874D01*
X004877Y005868D01*
X004936Y005859D01*
X004993Y005845D01*
X005049Y005828D01*
X005104Y005807D01*
X005158Y005783D01*
X005210Y005755D01*
X005260Y005724D01*
X005308Y005690D01*
X005353Y005653D01*
X005396Y005612D01*
X005437Y005569D01*
X005474Y005524D01*
X005508Y005476D01*
X005539Y005426D01*
X005567Y005374D01*
X005591Y005320D01*
X005612Y005265D01*
X005629Y005209D01*
X005643Y005152D01*
X005652Y005093D01*
X005658Y005035D01*
X005660Y004976D01*
X002910Y012126D02*
X002912Y012184D01*
X002918Y012242D01*
X002928Y012299D01*
X002942Y012355D01*
X002959Y012411D01*
X002980Y012465D01*
X003005Y012517D01*
X003034Y012568D01*
X003066Y012616D01*
X003101Y012662D01*
X003139Y012706D01*
X003180Y012747D01*
X003224Y012785D01*
X003270Y012820D01*
X003318Y012852D01*
X003369Y012881D01*
X003421Y012906D01*
X003475Y012927D01*
X003531Y012944D01*
X003587Y012958D01*
X003644Y012968D01*
X003702Y012974D01*
X003760Y012976D01*
X003818Y012974D01*
X003876Y012968D01*
X003933Y012958D01*
X003989Y012944D01*
X004045Y012927D01*
X004099Y012906D01*
X004151Y012881D01*
X004202Y012852D01*
X004250Y012820D01*
X004296Y012785D01*
X004340Y012747D01*
X004381Y012706D01*
X004419Y012662D01*
X004454Y012616D01*
X004486Y012568D01*
X004515Y012517D01*
X004540Y012465D01*
X004561Y012411D01*
X004578Y012355D01*
X004592Y012299D01*
X004602Y012242D01*
X004608Y012184D01*
X004610Y012126D01*
X004608Y012068D01*
X004602Y012010D01*
X004592Y011953D01*
X004578Y011897D01*
X004561Y011841D01*
X004540Y011787D01*
X004515Y011735D01*
X004486Y011684D01*
X004454Y011636D01*
X004419Y011590D01*
X004381Y011546D01*
X004340Y011505D01*
X004296Y011467D01*
X004250Y011432D01*
X004202Y011400D01*
X004151Y011371D01*
X004099Y011346D01*
X004045Y011325D01*
X003989Y011308D01*
X003933Y011294D01*
X003876Y011284D01*
X003818Y011278D01*
X003760Y011276D01*
X003702Y011278D01*
X003644Y011284D01*
X003587Y011294D01*
X003531Y011308D01*
X003475Y011325D01*
X003421Y011346D01*
X003369Y011371D01*
X003318Y011400D01*
X003270Y011432D01*
X003224Y011467D01*
X003180Y011505D01*
X003139Y011546D01*
X003101Y011590D01*
X003066Y011636D01*
X003034Y011684D01*
X003005Y011735D01*
X002980Y011787D01*
X002959Y011841D01*
X002942Y011897D01*
X002928Y011953D01*
X002918Y012010D01*
X002912Y012068D01*
X002910Y012126D01*
D13*
X004650Y012626D02*
X004650Y013046D01*
X004860Y013046D01*
X004930Y012976D01*
X004930Y012836D01*
X004860Y012766D01*
X004650Y012766D01*
X004790Y012766D02*
X004930Y012626D01*
X005110Y012626D02*
X005390Y012906D01*
X005390Y012976D01*
X005320Y013046D01*
X005180Y013046D01*
X005110Y012976D01*
X005110Y012626D02*
X005390Y012626D01*
X007299Y013824D02*
X007299Y014034D01*
X007369Y014104D01*
X007649Y014104D01*
X007720Y014034D01*
X007720Y013824D01*
X007299Y013824D01*
X007369Y014284D02*
X007649Y014284D01*
X007720Y014354D01*
X007720Y014495D01*
X007649Y014565D01*
X007649Y014745D02*
X007720Y014815D01*
X007720Y014955D01*
X007649Y015025D01*
X007369Y015025D01*
X007299Y014955D01*
X007299Y014815D01*
X007369Y014745D01*
X007649Y014745D01*
X007369Y014565D02*
X007299Y014495D01*
X007299Y014354D01*
X007369Y014284D01*
X007299Y015205D02*
X007439Y015345D01*
X007299Y015485D01*
X007720Y015485D01*
X007720Y015205D02*
X007299Y015205D01*
X007346Y015958D02*
X007346Y018793D01*
X013173Y018793D01*
X013173Y015958D01*
X007346Y015958D01*
X007385Y019166D02*
X007175Y019166D01*
X007175Y019586D01*
X007385Y019586D01*
X007455Y019516D01*
X007455Y019236D01*
X007385Y019166D01*
X007635Y019166D02*
X007635Y019586D01*
X007775Y019446D01*
X007915Y019586D01*
X007915Y019166D01*
X008095Y019586D02*
X008376Y019586D01*
X008235Y019586D02*
X008235Y019166D01*
X008556Y019166D02*
X008556Y019586D01*
X008836Y019586D01*
X008696Y019376D02*
X008556Y019376D01*
X008556Y019166D02*
X008836Y019166D01*
X009183Y019341D02*
X009183Y019761D01*
X009393Y019761D01*
X009463Y019691D01*
X009463Y019551D01*
X009393Y019481D01*
X009183Y019481D01*
X009643Y019481D02*
X009854Y019481D01*
X009924Y019551D01*
X009924Y019691D01*
X009854Y019761D01*
X009643Y019761D01*
X009643Y019341D01*
X010104Y019341D02*
X010384Y019341D01*
X010564Y019411D02*
X010634Y019341D01*
X010774Y019341D01*
X010844Y019411D01*
X010844Y019481D01*
X010774Y019551D01*
X010634Y019551D01*
X010564Y019621D01*
X010564Y019691D01*
X010634Y019761D01*
X010774Y019761D01*
X010844Y019691D01*
X010104Y019761D02*
X010104Y019341D01*
X010205Y015711D02*
X009925Y015431D01*
X009995Y015501D02*
X010205Y015291D01*
X010385Y015291D02*
X010665Y015571D01*
X010665Y015641D01*
X010595Y015711D01*
X010455Y015711D01*
X010385Y015641D01*
X010385Y015291D02*
X010665Y015291D01*
X010620Y014911D02*
X010480Y014911D01*
X010410Y014841D01*
X010410Y014561D01*
X010480Y014491D01*
X010620Y014491D01*
X010690Y014561D01*
X010870Y014561D02*
X010870Y014841D01*
X010940Y014911D01*
X011080Y014911D01*
X011151Y014841D01*
X011151Y014561D01*
X011080Y014491D01*
X010940Y014491D01*
X010870Y014561D01*
X010690Y014841D02*
X010620Y014911D01*
X010230Y014841D02*
X010230Y014701D01*
X010160Y014631D01*
X009950Y014631D01*
X009950Y014491D02*
X009950Y014911D01*
X010160Y014911D01*
X010230Y014841D01*
X009925Y015291D02*
X009925Y015711D01*
X011331Y014911D02*
X011331Y014491D01*
X011611Y014491D02*
X011611Y014911D01*
X011471Y014771D01*
X011331Y014911D01*
X011285Y013786D02*
X011425Y013646D01*
X011565Y013786D01*
X011565Y013366D01*
X011885Y013366D02*
X011885Y013786D01*
X011745Y013786D02*
X012026Y013786D01*
X012206Y013786D02*
X012206Y013366D01*
X012486Y013366D01*
X012346Y013576D02*
X012206Y013576D01*
X012206Y013786D02*
X012486Y013786D01*
X013599Y014066D02*
X013599Y014276D01*
X013669Y014346D01*
X013949Y014346D01*
X014020Y014276D01*
X014020Y014066D01*
X013599Y014066D01*
X013599Y014526D02*
X013599Y014806D01*
X013669Y014806D01*
X013949Y014526D01*
X014020Y014526D01*
X013885Y016541D02*
X014165Y016821D01*
X014165Y016891D01*
X014095Y016961D01*
X013955Y016961D01*
X013885Y016891D01*
X013705Y016961D02*
X013425Y016961D01*
X013565Y016961D02*
X013565Y016541D01*
X013885Y016541D02*
X014165Y016541D01*
X016399Y016530D02*
X016399Y016320D01*
X016820Y016320D01*
X016679Y016320D02*
X016679Y016530D01*
X016609Y016600D01*
X016469Y016600D01*
X016399Y016530D01*
X016609Y016780D02*
X016609Y017060D01*
X016399Y016990D02*
X016609Y016780D01*
X016820Y016600D02*
X016679Y016460D01*
X016820Y016990D02*
X016399Y016990D01*
X016369Y014556D02*
X016439Y014556D01*
X016509Y014486D01*
X016509Y014346D01*
X016439Y014276D01*
X016369Y014276D01*
X016299Y014346D01*
X016299Y014486D01*
X016369Y014556D01*
X016509Y014486D02*
X016579Y014556D01*
X016649Y014556D01*
X016720Y014486D01*
X016720Y014346D01*
X016649Y014276D01*
X016579Y014276D01*
X016509Y014346D01*
X016369Y014096D02*
X016299Y014026D01*
X016299Y013886D01*
X016369Y013816D01*
X016649Y013816D01*
X016720Y013886D01*
X016720Y014026D01*
X016649Y014096D01*
X016474Y012436D02*
X016334Y012436D01*
X016264Y012366D01*
X016264Y012296D01*
X016334Y012226D01*
X016544Y012226D01*
X016544Y012366D02*
X016474Y012436D01*
X016544Y012366D02*
X016544Y012086D01*
X016474Y012016D01*
X016334Y012016D01*
X016264Y012086D01*
X016084Y012086D02*
X016084Y012366D01*
X016014Y012436D01*
X015804Y012436D01*
X015804Y012016D01*
X016014Y012016D01*
X016084Y012086D01*
X015474Y011436D02*
X015544Y011366D01*
X015544Y011296D01*
X015474Y011226D01*
X015334Y011226D01*
X015264Y011296D01*
X015264Y011366D01*
X015334Y011436D01*
X015474Y011436D01*
X015474Y011226D02*
X015544Y011156D01*
X015544Y011086D01*
X015474Y011016D01*
X015334Y011016D01*
X015264Y011086D01*
X015264Y011156D01*
X015334Y011226D01*
X015084Y011366D02*
X015014Y011436D01*
X014804Y011436D01*
X014804Y011016D01*
X015014Y011016D01*
X015084Y011086D01*
X015084Y011366D01*
X014473Y009586D02*
X014193Y009586D01*
X014193Y009166D01*
X014473Y009166D01*
X014333Y009376D02*
X014193Y009376D01*
X014013Y009166D02*
X014013Y009586D01*
X013733Y009586D02*
X014013Y009166D01*
X013733Y009166D02*
X013733Y009586D01*
X013553Y009516D02*
X013553Y009236D01*
X013482Y009166D01*
X013342Y009166D01*
X013272Y009236D01*
X013272Y009516D01*
X013342Y009586D01*
X013482Y009586D01*
X013553Y009516D01*
X013092Y009586D02*
X012812Y009586D01*
X012952Y009586D02*
X012952Y009166D01*
X012632Y009376D02*
X012351Y009376D01*
X012171Y009586D02*
X011891Y009586D01*
X011891Y009166D01*
X012171Y009166D01*
X012031Y009376D02*
X011891Y009376D01*
X011711Y009306D02*
X011711Y009236D01*
X011641Y009166D01*
X011501Y009166D01*
X011431Y009236D01*
X011501Y009376D02*
X011641Y009376D01*
X011711Y009306D01*
X011711Y009516D02*
X011641Y009586D01*
X011501Y009586D01*
X011431Y009516D01*
X011431Y009446D01*
X011501Y009376D01*
X011251Y009166D02*
X010970Y009166D01*
X010970Y009586D01*
X010790Y009586D02*
X010790Y009236D01*
X010720Y009166D01*
X010580Y009166D01*
X010510Y009236D01*
X010510Y009586D01*
X010330Y009516D02*
X010330Y009376D01*
X010260Y009306D01*
X010050Y009306D01*
X010050Y009166D02*
X010050Y009586D01*
X010260Y009586D01*
X010330Y009516D01*
X010260Y008836D02*
X010050Y008836D01*
X010050Y008416D01*
X010050Y008556D02*
X010260Y008556D01*
X010330Y008626D01*
X010330Y008766D01*
X010260Y008836D01*
X010190Y008556D02*
X010330Y008416D01*
X010510Y008486D02*
X010510Y008766D01*
X010580Y008836D01*
X010720Y008836D01*
X010790Y008766D01*
X010790Y008486D01*
X010720Y008416D01*
X010580Y008416D01*
X010510Y008486D01*
X010503Y007946D02*
X010433Y007876D01*
X010433Y007736D01*
X010503Y007666D01*
X010643Y007666D01*
X010713Y007806D02*
X010433Y007806D01*
X010503Y007946D02*
X010643Y007946D01*
X010713Y007876D01*
X010713Y007806D01*
X010894Y007946D02*
X011034Y007666D01*
X011174Y007946D01*
X011354Y007736D02*
X011424Y007736D01*
X011424Y007666D01*
X011354Y007666D01*
X011354Y007736D01*
X011431Y008416D02*
X011431Y008696D01*
X011571Y008836D01*
X011711Y008696D01*
X011711Y008416D01*
X011891Y008416D02*
X011891Y008836D01*
X012101Y008836D01*
X012171Y008766D01*
X012171Y008626D01*
X012101Y008556D01*
X011891Y008556D01*
X012031Y008556D02*
X012171Y008416D01*
X012492Y008416D02*
X012492Y008626D01*
X012632Y008766D01*
X012632Y008836D01*
X012492Y008626D02*
X012351Y008766D01*
X012351Y008836D01*
X012185Y008086D02*
X012325Y007946D01*
X012325Y007666D01*
X012325Y007876D02*
X012045Y007876D01*
X012045Y007946D02*
X012185Y008086D01*
X012045Y007946D02*
X012045Y007666D01*
X012505Y007525D02*
X012645Y007666D01*
X012575Y007666D01*
X012575Y007736D01*
X012645Y007736D01*
X012645Y007666D01*
X013272Y007666D02*
X013552Y007946D01*
X013552Y008016D01*
X013482Y008086D01*
X013342Y008086D01*
X013272Y008016D01*
X013272Y007666D02*
X013552Y007666D01*
X013733Y007736D02*
X013733Y008016D01*
X013803Y008086D01*
X013943Y008086D01*
X014013Y008016D01*
X013733Y007736D01*
X013803Y007666D01*
X013943Y007666D01*
X014013Y007736D01*
X014013Y008016D01*
X014193Y008016D02*
X014263Y008086D01*
X014403Y008086D01*
X014473Y008016D01*
X014473Y007946D01*
X014193Y007666D01*
X014473Y007666D01*
X014653Y007876D02*
X014934Y007876D01*
X014864Y007666D02*
X014864Y008086D01*
X014653Y007876D01*
X014780Y008416D02*
X014500Y008416D01*
X014500Y008836D01*
X014320Y008696D02*
X014320Y008416D01*
X014320Y008626D02*
X014040Y008626D01*
X014040Y008696D02*
X014180Y008836D01*
X014320Y008696D01*
X014040Y008696D02*
X014040Y008416D01*
X013873Y008416D02*
X013733Y008416D01*
X013803Y008416D02*
X013803Y008836D01*
X013733Y008836D02*
X013873Y008836D01*
X013553Y008766D02*
X013553Y008486D01*
X013482Y008416D01*
X013272Y008416D01*
X013272Y008836D01*
X013482Y008836D01*
X013553Y008766D01*
X014125Y006611D02*
X014335Y006611D01*
X014405Y006541D01*
X014405Y006261D01*
X014335Y006191D01*
X014125Y006191D01*
X014125Y006611D01*
X014585Y006611D02*
X014585Y006401D01*
X014725Y006471D01*
X014795Y006471D01*
X014865Y006401D01*
X014865Y006261D01*
X014795Y006191D01*
X014655Y006191D01*
X014585Y006261D01*
X014585Y006611D02*
X014865Y006611D01*
X015375Y006441D02*
X015585Y006441D01*
X015655Y006511D01*
X015655Y006791D01*
X015585Y006861D01*
X015375Y006861D01*
X015375Y006441D01*
X015835Y006441D02*
X016115Y006721D01*
X016115Y006791D01*
X016045Y006861D01*
X015905Y006861D01*
X015835Y006791D01*
X015835Y006441D02*
X016115Y006441D01*
X016375Y006441D02*
X016585Y006441D01*
X016655Y006511D01*
X016655Y006791D01*
X016585Y006861D01*
X016375Y006861D01*
X016375Y006441D01*
X016835Y006511D02*
X016905Y006441D01*
X017045Y006441D01*
X017115Y006511D01*
X017115Y006581D01*
X017045Y006651D01*
X016975Y006651D01*
X017045Y006651D02*
X017115Y006721D01*
X017115Y006791D01*
X017045Y006861D01*
X016905Y006861D01*
X016835Y006791D01*
X016985Y007151D02*
X016564Y007151D01*
X016564Y007361D01*
X016634Y007431D01*
X016914Y007431D01*
X016985Y007361D01*
X016985Y007151D01*
X016985Y007611D02*
X016985Y007891D01*
X016985Y007751D02*
X016564Y007751D01*
X016704Y007611D01*
X016140Y008922D02*
X015745Y009066D01*
X015817Y009264D01*
X015907Y009306D01*
X016038Y009258D01*
X016080Y009168D01*
X016008Y008970D01*
X016056Y009102D02*
X016236Y009186D01*
X016297Y009355D02*
X016393Y009618D01*
X016345Y009487D02*
X015950Y009631D01*
X016034Y009451D01*
X014045Y006111D02*
X013835Y005901D01*
X014115Y005901D01*
X014045Y005691D02*
X014045Y006111D01*
X013655Y006041D02*
X013655Y005761D01*
X013585Y005691D01*
X013375Y005691D01*
X013375Y006111D01*
X013585Y006111D01*
X013655Y006041D01*
X011711Y008626D02*
X011431Y008626D01*
X011251Y008836D02*
X010970Y008836D01*
X011110Y008836D02*
X011110Y008416D01*
X010260Y007946D02*
X010190Y007946D01*
X010050Y007806D01*
X010050Y007666D02*
X010050Y007946D01*
X010120Y007335D02*
X010120Y007055D01*
X010120Y007195D02*
X009699Y007195D01*
X009839Y007055D01*
X009769Y006875D02*
X009699Y006805D01*
X009699Y006665D01*
X009769Y006595D01*
X010049Y006595D01*
X010120Y006665D01*
X010120Y006805D01*
X010049Y006875D01*
X010375Y005111D02*
X010515Y005111D01*
X010445Y005111D02*
X010445Y004691D01*
X010375Y004691D02*
X010515Y004691D01*
X010681Y004761D02*
X010752Y004691D01*
X010892Y004691D01*
X010962Y004761D01*
X011142Y004691D02*
X011422Y004971D01*
X011422Y005041D01*
X011352Y005111D01*
X011212Y005111D01*
X011142Y005041D01*
X010962Y005041D02*
X010892Y005111D01*
X010752Y005111D01*
X010681Y005041D01*
X010681Y004761D01*
X011142Y004691D02*
X011422Y004691D01*
X011700Y002911D02*
X011700Y002491D01*
X011980Y002491D01*
X012160Y002491D02*
X012160Y002911D01*
X012440Y002491D01*
X012440Y002911D01*
X012620Y002841D02*
X012690Y002911D01*
X012830Y002911D01*
X012901Y002841D01*
X012901Y002771D01*
X012620Y002491D01*
X012901Y002491D01*
X009494Y001681D02*
X009214Y001681D01*
X009354Y001681D02*
X009354Y002101D01*
X009214Y001961D01*
X009034Y002031D02*
X008964Y002101D01*
X008824Y002101D01*
X008754Y002031D01*
X008754Y001751D01*
X008824Y001681D01*
X008964Y001681D01*
X009034Y001751D01*
X008587Y001681D02*
X008447Y001681D01*
X008517Y001681D02*
X008517Y002101D01*
X008447Y002101D02*
X008587Y002101D01*
X007245Y001136D02*
X007245Y000716D01*
X007315Y000926D02*
X007035Y000926D01*
X007245Y001136D01*
X006855Y001066D02*
X006785Y001136D01*
X006645Y001136D01*
X006575Y001066D01*
X006575Y000786D01*
X006645Y000716D01*
X006785Y000716D01*
X006855Y000786D01*
X003815Y000845D02*
X003744Y000775D01*
X003464Y000775D01*
X003394Y000845D01*
X003394Y000985D01*
X003464Y001055D01*
X003744Y001055D01*
X003815Y000985D01*
X003815Y000845D01*
X003674Y000915D02*
X003815Y001055D01*
X003815Y001235D02*
X003815Y001515D01*
X003815Y001375D02*
X003394Y001375D01*
X003534Y001235D01*
X003574Y005470D02*
X003294Y005470D01*
X003224Y005540D01*
X003224Y005680D01*
X003294Y005750D01*
X003294Y005930D02*
X003224Y006000D01*
X003224Y006140D01*
X003294Y006210D01*
X003364Y006210D01*
X003434Y006140D01*
X003504Y006210D01*
X003574Y006210D01*
X003645Y006140D01*
X003645Y006000D01*
X003574Y005930D01*
X003574Y005750D02*
X003645Y005680D01*
X003645Y005540D01*
X003574Y005470D01*
X003434Y006070D02*
X003434Y006140D01*
X003499Y008316D02*
X003219Y008316D01*
X003149Y008386D01*
X003149Y008526D01*
X003219Y008596D01*
X003219Y008776D02*
X003149Y008846D01*
X003149Y008986D01*
X003219Y009056D01*
X003289Y009056D01*
X003570Y008776D01*
X003570Y009056D01*
X003499Y008596D02*
X003570Y008526D01*
X003570Y008386D01*
X003499Y008316D01*
X005649Y009386D02*
X005719Y009316D01*
X005999Y009316D01*
X006070Y009386D01*
X006070Y009526D01*
X005999Y009596D01*
X005999Y009776D02*
X005859Y009776D01*
X005859Y009986D01*
X005929Y010056D01*
X005999Y010056D01*
X006070Y009986D01*
X006070Y009846D01*
X005999Y009776D01*
X005859Y009776D02*
X005719Y009916D01*
X005649Y010056D01*
X005719Y009596D02*
X005649Y009526D01*
X005649Y009386D01*
X007949Y008960D02*
X007949Y008680D01*
X008159Y008680D01*
X008089Y008820D01*
X008089Y008890D01*
X008159Y008960D01*
X008299Y008960D01*
X008370Y008890D01*
X008370Y008750D01*
X008299Y008680D01*
X008299Y008500D02*
X008370Y008430D01*
X008370Y008290D01*
X008299Y008220D01*
X008019Y008220D01*
X007949Y008290D01*
X007949Y008430D01*
X008019Y008500D01*
X008089Y010066D02*
X007949Y010066D01*
X007879Y010136D01*
X007949Y010276D02*
X008089Y010276D01*
X008159Y010206D01*
X008159Y010136D01*
X008089Y010066D01*
X008339Y010066D02*
X008619Y010066D01*
X008479Y010066D02*
X008479Y010486D01*
X008339Y010346D01*
X008159Y010416D02*
X008089Y010486D01*
X007949Y010486D01*
X007879Y010416D01*
X007879Y010346D01*
X007949Y010276D01*
X010825Y013366D02*
X010825Y013786D01*
X011035Y013786D01*
X011105Y013716D01*
X011105Y013576D01*
X011035Y013506D01*
X010825Y013506D01*
X011285Y013366D02*
X011285Y013786D01*
X013300Y020666D02*
X013300Y021086D01*
X013370Y020876D02*
X013580Y020666D01*
X013760Y020736D02*
X013830Y020666D01*
X013970Y020666D01*
X014040Y020736D01*
X014040Y020806D01*
X013970Y020876D01*
X013900Y020876D01*
X013970Y020876D02*
X014040Y020946D01*
X014040Y021016D01*
X013970Y021086D01*
X013830Y021086D01*
X013760Y021016D01*
X013580Y021086D02*
X013300Y020806D01*
X013173Y020708D02*
X013173Y023543D01*
X007346Y023543D01*
X007346Y020708D01*
X013173Y020708D01*
X013690Y021416D02*
X013690Y021836D01*
X013550Y021836D02*
X013830Y021836D01*
X014010Y021696D02*
X014150Y021836D01*
X014150Y021416D01*
X014010Y021416D02*
X014290Y021416D01*
X014474Y021276D02*
X014474Y021066D01*
X014895Y021066D01*
X014895Y021276D01*
X014824Y021346D01*
X014544Y021346D01*
X014474Y021276D01*
X014684Y021526D02*
X014544Y021666D01*
X014474Y021806D01*
X014684Y021736D02*
X014684Y021526D01*
X014824Y021526D01*
X014895Y021596D01*
X014895Y021736D01*
X014824Y021806D01*
X014754Y021806D01*
X014684Y021736D01*
X016704Y021236D02*
X016704Y020816D01*
X016704Y020956D02*
X016914Y020956D01*
X016984Y021026D01*
X016984Y021166D01*
X016914Y021236D01*
X016704Y021236D01*
X016844Y020956D02*
X016984Y020816D01*
X017164Y020886D02*
X017234Y020816D01*
X017374Y020816D01*
X017444Y020886D01*
X017444Y020956D01*
X017374Y021026D01*
X017304Y021026D01*
X017374Y021026D02*
X017444Y021096D01*
X017444Y021166D01*
X017374Y021236D01*
X017234Y021236D01*
X017164Y021166D01*
X018799Y021386D02*
X018869Y021316D01*
X019149Y021316D01*
X019220Y021386D01*
X019220Y021526D01*
X019149Y021596D01*
X019149Y021776D02*
X019220Y021776D01*
X019149Y021776D02*
X018869Y022056D01*
X018799Y022056D01*
X018799Y021776D01*
X018869Y021596D02*
X018799Y021526D01*
X018799Y021386D01*
X005836Y023361D02*
X005766Y023291D01*
X005626Y023291D01*
X005556Y023361D01*
X005626Y023501D02*
X005766Y023501D01*
X005836Y023431D01*
X005836Y023361D01*
X005626Y023501D02*
X005556Y023571D01*
X005556Y023641D01*
X005626Y023711D01*
X005766Y023711D01*
X005836Y023641D01*
X005376Y023291D02*
X005095Y023291D01*
X005095Y023711D01*
X004915Y023641D02*
X004915Y023501D01*
X004845Y023431D01*
X004635Y023431D01*
X004635Y023291D02*
X004635Y023711D01*
X004845Y023711D01*
X004915Y023641D01*
X004455Y023641D02*
X004455Y023361D01*
X004385Y023291D01*
X004175Y023291D01*
X004175Y023711D01*
X004385Y023711D01*
X004455Y023641D01*
X017950Y002786D02*
X017950Y002366D01*
X018230Y002366D01*
X018410Y002366D02*
X018410Y002786D01*
X018690Y002366D01*
X018690Y002786D01*
X018870Y002646D02*
X019010Y002786D01*
X019010Y002366D01*
X018870Y002366D02*
X019151Y002366D01*
D14*
X005460Y002276D02*
X005460Y004976D01*
X005458Y005027D01*
X005453Y005078D01*
X005443Y005128D01*
X005430Y005178D01*
X005414Y005226D01*
X005394Y005273D01*
X005370Y005319D01*
X005344Y005362D01*
X005314Y005404D01*
X005281Y005443D01*
X005246Y005480D01*
X005208Y005514D01*
X005167Y005545D01*
X005125Y005574D01*
X005080Y005599D01*
X005034Y005620D01*
X004986Y005639D01*
X004937Y005653D01*
X004887Y005664D01*
X004837Y005672D01*
X004786Y005676D01*
X004734Y005676D01*
X004683Y005672D01*
X004633Y005664D01*
X004583Y005653D01*
X004534Y005639D01*
X004486Y005620D01*
X004440Y005599D01*
X004395Y005574D01*
X004353Y005545D01*
X004312Y005514D01*
X004274Y005480D01*
X004239Y005443D01*
X004206Y005404D01*
X004176Y005362D01*
X004150Y005319D01*
X004126Y005273D01*
X004106Y005226D01*
X004090Y005178D01*
X004077Y005128D01*
X004067Y005078D01*
X004062Y005027D01*
X004060Y004976D01*
X004060Y002276D01*
X004062Y002225D01*
X004067Y002174D01*
X004077Y002124D01*
X004090Y002074D01*
X004106Y002026D01*
X004126Y001979D01*
X004150Y001933D01*
X004176Y001890D01*
X004206Y001848D01*
X004239Y001809D01*
X004274Y001772D01*
X004312Y001738D01*
X004353Y001707D01*
X004395Y001678D01*
X004440Y001653D01*
X004486Y001632D01*
X004534Y001613D01*
X004583Y001599D01*
X004633Y001588D01*
X004683Y001580D01*
X004734Y001576D01*
X004786Y001576D01*
X004837Y001580D01*
X004887Y001588D01*
X004937Y001599D01*
X004986Y001613D01*
X005034Y001632D01*
X005080Y001653D01*
X005125Y001678D01*
X005167Y001707D01*
X005208Y001738D01*
X005246Y001772D01*
X005281Y001809D01*
X005314Y001848D01*
X005344Y001890D01*
X005370Y001933D01*
X005394Y001979D01*
X005414Y002026D01*
X005430Y002074D01*
X005443Y002124D01*
X005453Y002174D01*
X005458Y002225D01*
X005460Y002276D01*
D15*
X006890Y002051D02*
X006890Y001751D01*
X006890Y001451D01*
X007140Y001451D02*
X007140Y001751D01*
X007140Y002051D01*
X004880Y006326D02*
X004880Y006626D01*
X004880Y006926D01*
X004630Y006926D02*
X004630Y006626D01*
X004630Y006326D01*
X006130Y008376D02*
X006130Y008626D01*
X006130Y008876D01*
X006380Y008876D02*
X006380Y008626D01*
X006380Y008376D01*
X007880Y007251D02*
X007880Y007001D01*
X007880Y006751D01*
X008130Y006751D02*
X008130Y007001D01*
X008130Y007251D01*
X007010Y010506D02*
X006760Y010506D01*
X006510Y010506D01*
X006510Y010756D02*
X006760Y010756D01*
X007010Y010756D01*
X004510Y009756D02*
X004260Y009756D01*
X004010Y009756D01*
X004010Y009506D02*
X004260Y009506D01*
X004510Y009506D01*
D16*
X018385Y005751D03*
D17*
X018385Y004876D03*
X018385Y009126D03*
D18*
X016760Y004426D03*
X015760Y004426D03*
X014760Y004176D03*
X013760Y003676D03*
D19*
X013760Y004301D03*
X014760Y004801D03*
X015760Y005051D03*
X016760Y005051D03*
X016760Y002701D03*
X015760Y002701D03*
X014760Y002451D03*
X013760Y001951D03*
D20*
X007635Y017376D03*
X012885Y022126D03*
D21*
X017760Y021401D03*
X017760Y014401D03*
D22*
G36*
X016686Y008827D02*
X017034Y009784D01*
X017334Y009675D01*
X016986Y008718D01*
X016686Y008827D01*
G37*
X004760Y012126D03*
D23*
X012685Y011251D03*
X013685Y012251D03*
D24*
X014310Y012251D03*
X013310Y011251D03*
X011960Y012251D03*
X010960Y011251D03*
D25*
X011480Y010251D02*
X012540Y010251D01*
X012790Y015001D02*
X011730Y015001D01*
X014003Y019266D02*
X017016Y018735D01*
X018944Y019651D02*
X018575Y012600D01*
X013540Y020376D02*
X008480Y020376D01*
X005290Y007626D02*
X004230Y007626D01*
X012010Y005031D02*
X012010Y003971D01*
D26*
X014635Y014876D03*
X015385Y021001D03*
D27*
X015385Y020501D03*
X015385Y022251D03*
X014635Y016126D03*
X014635Y014376D03*
D28*
X006630Y014626D03*
X006630Y018126D03*
X006630Y021626D03*
X003283Y021626D03*
X003283Y018126D03*
X003283Y014626D03*
D29*
X004956Y015905D03*
X004956Y016846D03*
X004956Y019405D03*
X004956Y020346D03*
X004956Y022905D03*
X004956Y013346D03*
M02*
