G75*
%MOIN*%
%OFA0B0*%
%FSLAX24Y24*%
%IPPOS*%
%LPD*%
%AMOC8*
5,1,8,0,0,1.08239X$1,22.5*
%
%ADD10C,0.0715*%
%ADD11C,0.0635*%
%ADD12OC8,0.0715*%
%ADD13C,0.0985*%
%ADD14C,0.0835*%
%ADD15C,0.0789*%
%ADD16OC8,0.1320*%
%ADD17C,0.1320*%
%ADD18C,0.0159*%
%ADD19C,0.1261*%
%ADD20C,0.0143*%
%ADD21OC8,0.0795*%
D10*
X006067Y003045D02*
X006702Y003045D01*
X006702Y004045D02*
X006067Y004045D01*
X006067Y005045D02*
X006702Y005045D01*
X006702Y006045D02*
X006067Y006045D01*
X009067Y006045D02*
X009702Y006045D01*
X009702Y005045D02*
X009067Y005045D01*
X009067Y004045D02*
X009702Y004045D01*
X009702Y003045D02*
X009067Y003045D01*
X014510Y013228D02*
X014510Y013862D01*
X014510Y016228D02*
X014510Y016862D01*
X015385Y019728D02*
X015385Y020362D01*
X015385Y022728D02*
X015385Y023362D01*
D11*
X005037Y002795D02*
X004482Y002795D01*
X004482Y004795D02*
X005037Y004795D01*
D12*
X005760Y006795D03*
X005760Y007795D03*
X005260Y008795D03*
X004260Y008795D03*
X003760Y007795D03*
X003760Y006795D03*
X004260Y010795D03*
X006760Y009795D03*
X007260Y008795D03*
X007010Y007170D03*
X009010Y007170D03*
X011010Y007045D03*
X011010Y006045D03*
X011760Y006545D03*
X012010Y005670D03*
X012010Y003670D03*
X008010Y001920D03*
X006010Y001920D03*
X011010Y010420D03*
X013010Y010420D03*
X016010Y015045D03*
X016010Y018045D03*
X014885Y017920D03*
X014385Y018670D03*
X013885Y017920D03*
X014010Y020545D03*
X014385Y022670D03*
X013635Y023170D03*
X014385Y023670D03*
X016260Y023295D03*
X016260Y020295D03*
X011385Y015420D03*
X008760Y013295D03*
X008760Y012295D03*
X008760Y011295D03*
X007760Y011295D03*
X007760Y012295D03*
X007760Y013295D03*
X006760Y011795D03*
X007385Y015420D03*
X008010Y020545D03*
D13*
X018385Y010622D02*
X018385Y009718D01*
X018385Y004622D02*
X018385Y003718D01*
D14*
X016760Y002045D03*
X015760Y002045D03*
X014760Y001795D03*
X013760Y001295D03*
X013760Y005295D03*
X014760Y005795D03*
X015760Y006045D03*
X016760Y006045D03*
X014135Y011420D03*
X015135Y012420D03*
X011135Y012420D03*
X010135Y011420D03*
D15*
X009760Y016545D03*
X010760Y016545D03*
X011760Y016545D03*
X012760Y016545D03*
X012760Y018545D03*
X011760Y018545D03*
X010760Y018545D03*
X009760Y018545D03*
X007760Y018545D03*
X007760Y016545D03*
X007760Y021295D03*
X008760Y021295D03*
X009760Y021295D03*
X010760Y021295D03*
X010760Y023295D03*
X009760Y023295D03*
X008760Y023295D03*
X007760Y023295D03*
X012760Y023295D03*
X012760Y021295D03*
D16*
X011260Y019795D03*
X008885Y014920D03*
X009885Y013795D03*
X017760Y013295D03*
X017760Y020295D03*
X012260Y001795D03*
X018385Y001670D03*
D17*
X017760Y016295D03*
X017760Y023295D03*
D18*
X017201Y010186D02*
X017121Y010106D01*
X017009Y010346D01*
X017098Y010591D01*
X017338Y010703D01*
X017583Y010614D01*
X017695Y010374D01*
X017606Y010129D01*
X017366Y010017D01*
X017121Y010106D01*
X017207Y010202D01*
X017137Y010352D01*
X017194Y010505D01*
X017344Y010575D01*
X017497Y010518D01*
X017567Y010368D01*
X017510Y010215D01*
X017360Y010145D01*
X017207Y010202D01*
X017295Y010297D01*
X017267Y010357D01*
X017289Y010417D01*
X017349Y010445D01*
X017409Y010423D01*
X017437Y010363D01*
X017415Y010303D01*
X017355Y010275D01*
X017295Y010297D01*
X016516Y008306D02*
X016436Y008226D01*
X016324Y008466D01*
X016413Y008711D01*
X016653Y008823D01*
X016898Y008734D01*
X017010Y008494D01*
X016921Y008249D01*
X016681Y008137D01*
X016436Y008226D01*
X016522Y008322D01*
X016452Y008472D01*
X016509Y008625D01*
X016659Y008695D01*
X016812Y008638D01*
X016882Y008488D01*
X016825Y008335D01*
X016675Y008265D01*
X016522Y008322D01*
X016610Y008417D01*
X016582Y008477D01*
X016604Y008537D01*
X016664Y008565D01*
X016724Y008543D01*
X016752Y008483D01*
X016730Y008423D01*
X016670Y008395D01*
X016610Y008417D01*
D19*
X006334Y013811D03*
X006334Y015779D03*
X006334Y017311D03*
X006334Y019279D03*
X006334Y020811D03*
X006334Y022779D03*
X003578Y022779D03*
X003578Y020811D03*
X003578Y019279D03*
X003578Y017311D03*
X003578Y015779D03*
X003578Y013811D03*
D20*
X011339Y013667D02*
X011267Y013595D01*
X011267Y013831D01*
X011434Y013998D01*
X011670Y013998D01*
X011837Y013831D01*
X011837Y013595D01*
X011670Y013428D01*
X011434Y013428D01*
X011267Y013595D01*
X011374Y013639D01*
X011374Y013787D01*
X011478Y013891D01*
X011626Y013891D01*
X011730Y013787D01*
X011730Y013639D01*
X011626Y013535D01*
X011478Y013535D01*
X011374Y013639D01*
X011482Y013684D01*
X011482Y013742D01*
X011523Y013783D01*
X011581Y013783D01*
X011622Y013742D01*
X011622Y013684D01*
X011581Y013643D01*
X011523Y013643D01*
X011482Y013684D01*
X012754Y015081D02*
X012682Y015009D01*
X012682Y015245D01*
X012849Y015412D01*
X013085Y015412D01*
X013252Y015245D01*
X013252Y015009D01*
X013085Y014842D01*
X012849Y014842D01*
X012682Y015009D01*
X012789Y015053D01*
X012789Y015201D01*
X012893Y015305D01*
X013041Y015305D01*
X013145Y015201D01*
X013145Y015053D01*
X013041Y014949D01*
X012893Y014949D01*
X012789Y015053D01*
X012897Y015098D01*
X012897Y015156D01*
X012938Y015197D01*
X012996Y015197D01*
X013037Y015156D01*
X013037Y015098D01*
X012996Y015057D01*
X012938Y015057D01*
X012897Y015098D01*
X013351Y019610D02*
X013279Y019682D01*
X013474Y019819D01*
X013705Y019778D01*
X013842Y019583D01*
X013801Y019352D01*
X013606Y019215D01*
X013375Y019256D01*
X013238Y019451D01*
X013279Y019682D01*
X013377Y019620D01*
X013499Y019706D01*
X013643Y019680D01*
X013729Y019558D01*
X013703Y019414D01*
X013581Y019328D01*
X013437Y019354D01*
X013351Y019476D01*
X013377Y019620D01*
X013476Y019557D01*
X013524Y019591D01*
X013580Y019581D01*
X013614Y019533D01*
X013604Y019477D01*
X013556Y019443D01*
X013500Y019453D01*
X013466Y019501D01*
X013476Y019557D01*
X017290Y018916D02*
X017218Y018988D01*
X017413Y019125D01*
X017644Y019084D01*
X017781Y018889D01*
X017740Y018658D01*
X017545Y018521D01*
X017314Y018562D01*
X017177Y018757D01*
X017218Y018988D01*
X017316Y018926D01*
X017438Y019012D01*
X017582Y018986D01*
X017668Y018864D01*
X017642Y018720D01*
X017520Y018634D01*
X017376Y018660D01*
X017290Y018782D01*
X017316Y018926D01*
X017415Y018863D01*
X017463Y018897D01*
X017519Y018887D01*
X017553Y018839D01*
X017543Y018783D01*
X017495Y018749D01*
X017439Y018759D01*
X017405Y018807D01*
X017415Y018863D01*
X018909Y020083D02*
X018837Y020011D01*
X018678Y020188D01*
X018690Y020422D01*
X018867Y020581D01*
X019101Y020569D01*
X019260Y020392D01*
X019248Y020158D01*
X019071Y019999D01*
X018837Y020011D01*
X018886Y020116D01*
X018787Y020226D01*
X018795Y020373D01*
X018905Y020472D01*
X019052Y020464D01*
X019151Y020354D01*
X019143Y020207D01*
X019033Y020108D01*
X018886Y020116D01*
X018937Y020221D01*
X018897Y020265D01*
X018900Y020322D01*
X018944Y020362D01*
X019001Y020359D01*
X019041Y020315D01*
X019038Y020258D01*
X018994Y020218D01*
X018937Y020221D01*
X018490Y012093D02*
X018418Y012021D01*
X018259Y012198D01*
X018271Y012432D01*
X018448Y012591D01*
X018682Y012579D01*
X018841Y012402D01*
X018829Y012168D01*
X018652Y012009D01*
X018418Y012021D01*
X018467Y012126D01*
X018368Y012236D01*
X018376Y012383D01*
X018486Y012482D01*
X018633Y012474D01*
X018732Y012364D01*
X018724Y012217D01*
X018614Y012118D01*
X018467Y012126D01*
X018518Y012231D01*
X018478Y012275D01*
X018481Y012332D01*
X018525Y012372D01*
X018582Y012369D01*
X018622Y012325D01*
X018619Y012268D01*
X018575Y012228D01*
X018518Y012231D01*
D21*
X005760Y012295D03*
X003760Y012295D03*
M02*
