G75*
%MOIN*%
%OFA0B0*%
%FSLAX24Y24*%
%IPPOS*%
%LPD*%
%AMOC8*
5,1,8,0,0,1.08239X$1,22.5*
%
%ADD10C,0.0635*%
%ADD11C,0.0555*%
%ADD12OC8,0.0635*%
%ADD13C,0.0905*%
%ADD14C,0.0755*%
%ADD15C,0.0709*%
%ADD16OC8,0.1240*%
%ADD17C,0.1240*%
%ADD18C,0.0143*%
%ADD19C,0.1181*%
%ADD20C,0.0127*%
%ADD21OC8,0.0715*%
%ADD22C,0.0160*%
%ADD23C,0.0120*%
D10*
X006067Y002876D02*
X006702Y002876D01*
X006702Y003876D02*
X006067Y003876D01*
X006067Y004876D02*
X006702Y004876D01*
X006702Y005876D02*
X006067Y005876D01*
X009067Y005876D02*
X009702Y005876D01*
X009702Y004876D02*
X009067Y004876D01*
X009067Y003876D02*
X009702Y003876D01*
X009702Y002876D02*
X009067Y002876D01*
X014635Y013433D02*
X014635Y014068D01*
X014635Y016433D02*
X014635Y017068D01*
X015385Y019558D02*
X015385Y020193D01*
X015385Y022558D02*
X015385Y023193D01*
D11*
X005037Y004626D02*
X004482Y004626D01*
X004482Y002626D02*
X005037Y002626D01*
D12*
X006010Y001751D03*
X008010Y001751D03*
X011010Y005876D03*
X011760Y006376D03*
X012010Y005501D03*
X011010Y006876D03*
X009010Y007001D03*
X007260Y008626D03*
X006760Y009626D03*
X007760Y011126D03*
X007760Y012126D03*
X007760Y013126D03*
X008760Y013126D03*
X008760Y012126D03*
X008760Y011126D03*
X006760Y011626D03*
X005260Y008626D03*
X005760Y007626D03*
X005760Y006626D03*
X007010Y007001D03*
X004260Y008626D03*
X003760Y007626D03*
X003760Y006626D03*
X004260Y010626D03*
X011010Y010251D03*
X013010Y010251D03*
X013260Y015001D03*
X011260Y015001D03*
X013885Y018251D03*
X014385Y017501D03*
X014885Y018251D03*
X015760Y018126D03*
X016260Y020126D03*
X014010Y020376D03*
X013885Y022501D03*
X014635Y023001D03*
X013885Y023501D03*
X016260Y023126D03*
X015760Y015126D03*
X008010Y020376D03*
X012010Y003501D03*
D13*
X018385Y003548D02*
X018385Y004453D01*
X018385Y009548D02*
X018385Y010453D01*
D14*
X015135Y012251D03*
X014135Y011251D03*
X011135Y012251D03*
X010135Y011251D03*
X013760Y005126D03*
X014760Y005626D03*
X015760Y005876D03*
X016760Y005876D03*
X016760Y001876D03*
X015760Y001876D03*
X014760Y001626D03*
X013760Y001126D03*
D15*
X012760Y016376D03*
X011760Y016376D03*
X010760Y016376D03*
X009760Y016376D03*
X009760Y018376D03*
X010760Y018376D03*
X011760Y018376D03*
X012760Y018376D03*
X012760Y021126D03*
X012760Y023126D03*
X010760Y023126D03*
X009760Y023126D03*
X008760Y023126D03*
X007760Y023126D03*
X007760Y021126D03*
X008760Y021126D03*
X009760Y021126D03*
X010760Y021126D03*
X007760Y018376D03*
X007760Y016376D03*
D16*
X008885Y014751D03*
X009885Y013626D03*
X011760Y019626D03*
X017760Y020126D03*
X017760Y013126D03*
X012260Y001626D03*
X018385Y001501D03*
D17*
X017760Y016126D03*
X017760Y023126D03*
D18*
X017216Y010034D02*
X017144Y009962D01*
X017043Y010177D01*
X017124Y010398D01*
X017339Y010499D01*
X017560Y010418D01*
X017661Y010203D01*
X017580Y009982D01*
X017365Y009881D01*
X017144Y009962D01*
X017222Y010048D01*
X017159Y010182D01*
X017210Y010320D01*
X017344Y010383D01*
X017482Y010332D01*
X017545Y010198D01*
X017494Y010060D01*
X017360Y009997D01*
X017222Y010048D01*
X017301Y010134D01*
X017276Y010188D01*
X017296Y010241D01*
X017350Y010266D01*
X017403Y010246D01*
X017428Y010192D01*
X017408Y010139D01*
X017354Y010114D01*
X017301Y010134D01*
X016531Y008155D02*
X016459Y008083D01*
X016358Y008298D01*
X016439Y008519D01*
X016654Y008620D01*
X016875Y008539D01*
X016976Y008324D01*
X016895Y008103D01*
X016680Y008002D01*
X016459Y008083D01*
X016537Y008169D01*
X016474Y008303D01*
X016525Y008441D01*
X016659Y008504D01*
X016797Y008453D01*
X016860Y008319D01*
X016809Y008181D01*
X016675Y008118D01*
X016537Y008169D01*
X016616Y008255D01*
X016591Y008309D01*
X016611Y008362D01*
X016665Y008387D01*
X016718Y008367D01*
X016743Y008313D01*
X016723Y008260D01*
X016669Y008235D01*
X016616Y008255D01*
D19*
X006334Y013641D03*
X006334Y015610D03*
X006334Y017141D03*
X006334Y019110D03*
X006334Y020641D03*
X006334Y022610D03*
X003578Y022610D03*
X003578Y020641D03*
X003578Y019110D03*
X003578Y017141D03*
X003578Y015610D03*
X003578Y013641D03*
D20*
X013373Y019431D02*
X013309Y019495D01*
X013481Y019616D01*
X013687Y019579D01*
X013808Y019407D01*
X013771Y019201D01*
X013599Y019080D01*
X013393Y019117D01*
X013272Y019289D01*
X013309Y019495D01*
X013395Y019439D01*
X013504Y019515D01*
X013631Y019493D01*
X013707Y019384D01*
X013685Y019257D01*
X013576Y019181D01*
X013449Y019203D01*
X013373Y019312D01*
X013395Y019439D01*
X013483Y019384D01*
X013526Y019414D01*
X013576Y019405D01*
X013606Y019362D01*
X013597Y019312D01*
X013554Y019282D01*
X013504Y019291D01*
X013474Y019334D01*
X013483Y019384D01*
X017312Y018736D02*
X017248Y018800D01*
X017420Y018921D01*
X017626Y018884D01*
X017747Y018712D01*
X017710Y018506D01*
X017538Y018385D01*
X017332Y018422D01*
X017211Y018594D01*
X017248Y018800D01*
X017334Y018744D01*
X017443Y018820D01*
X017570Y018798D01*
X017646Y018689D01*
X017624Y018562D01*
X017515Y018486D01*
X017388Y018508D01*
X017312Y018617D01*
X017334Y018744D01*
X017422Y018689D01*
X017465Y018719D01*
X017515Y018710D01*
X017545Y018667D01*
X017536Y018617D01*
X017493Y018587D01*
X017443Y018596D01*
X017413Y018639D01*
X017422Y018689D01*
X018915Y019936D02*
X018851Y019872D01*
X018710Y020029D01*
X018721Y020238D01*
X018878Y020379D01*
X019087Y020368D01*
X019228Y020211D01*
X019217Y020002D01*
X019060Y019861D01*
X018851Y019872D01*
X018896Y019965D01*
X018807Y020064D01*
X018814Y020193D01*
X018913Y020282D01*
X019042Y020275D01*
X019131Y020176D01*
X019124Y020047D01*
X019025Y019958D01*
X018896Y019965D01*
X018940Y020059D01*
X018905Y020098D01*
X018908Y020149D01*
X018947Y020184D01*
X018998Y020181D01*
X019033Y020142D01*
X019030Y020091D01*
X018991Y020056D01*
X018940Y020059D01*
X018496Y011947D02*
X018432Y011883D01*
X018291Y012040D01*
X018302Y012249D01*
X018459Y012390D01*
X018668Y012379D01*
X018809Y012222D01*
X018798Y012013D01*
X018641Y011872D01*
X018432Y011883D01*
X018477Y011976D01*
X018388Y012075D01*
X018395Y012204D01*
X018494Y012293D01*
X018623Y012286D01*
X018712Y012187D01*
X018705Y012058D01*
X018606Y011969D01*
X018477Y011976D01*
X018521Y012070D01*
X018486Y012109D01*
X018489Y012160D01*
X018528Y012195D01*
X018579Y012192D01*
X018614Y012153D01*
X018611Y012102D01*
X018572Y012067D01*
X018521Y012070D01*
D21*
X005760Y012126D03*
X003760Y012126D03*
D22*
X003260Y001126D02*
X003760Y000626D01*
X006885Y000626D01*
X008010Y001751D01*
X008135Y001626D01*
X010260Y001626D01*
X012010Y003376D01*
X012010Y003501D01*
X012135Y003501D01*
X013760Y005126D01*
X014760Y005626D01*
X014260Y006626D02*
X012260Y004626D01*
X011385Y004626D01*
X010885Y005126D01*
X010885Y005751D01*
X011010Y005876D01*
X010885Y005126D02*
X010885Y003001D01*
X010010Y002126D01*
X008760Y002126D01*
X008260Y002626D01*
X007760Y002626D01*
X006260Y001126D01*
X004260Y001126D01*
X003760Y001626D01*
X003760Y005626D01*
X004760Y006626D01*
X004760Y008126D01*
X004260Y008626D01*
X003760Y008626D01*
X003260Y009126D01*
X003260Y010751D01*
X003885Y011376D01*
X004510Y011376D01*
X005260Y012126D01*
X005760Y012126D01*
X005635Y012876D02*
X006385Y012626D01*
X006760Y012626D01*
X007260Y013126D01*
X007760Y013126D01*
X008260Y012626D01*
X008260Y011751D01*
X008385Y011626D01*
X009510Y011626D01*
X010010Y012126D01*
X011010Y012126D01*
X011885Y012126D02*
X011010Y011251D01*
X010135Y011251D01*
X010135Y011126D01*
X009385Y010376D01*
X008010Y010376D01*
X007760Y010626D01*
X007760Y011126D01*
X007760Y012126D02*
X007260Y012126D01*
X006760Y011626D01*
X005760Y010626D01*
X005260Y010126D01*
X005260Y008626D01*
X005760Y008126D01*
X005760Y007626D01*
X007010Y007001D01*
X007010Y006876D01*
X007260Y006626D01*
X007260Y003126D01*
X007010Y002876D01*
X006385Y002876D01*
X006385Y003876D02*
X006010Y003876D01*
X004760Y002626D01*
X005635Y001751D01*
X006010Y001751D01*
X004760Y004626D02*
X005010Y004876D01*
X006385Y004876D01*
X007760Y004626D02*
X007760Y007251D01*
X007260Y007751D01*
X006885Y007751D01*
X006385Y008251D01*
X006385Y009251D01*
X006760Y009626D01*
X007010Y009376D01*
X009510Y009376D01*
X009885Y009001D01*
X011885Y009001D01*
X013010Y010126D01*
X013010Y010251D01*
X012635Y010876D02*
X013385Y010876D01*
X013760Y010501D01*
X015385Y010501D01*
X016635Y011751D01*
X016635Y012376D01*
X017385Y013126D01*
X017760Y013126D01*
X017760Y012922D01*
X018550Y012131D01*
X019260Y011876D02*
X018760Y011376D01*
X017260Y011376D01*
X015885Y010001D01*
X014010Y010001D01*
X012635Y008626D01*
X007760Y008626D01*
X007260Y008626D01*
X007760Y008626D02*
X008260Y008126D01*
X008260Y005126D01*
X008510Y004876D01*
X009385Y004876D01*
X009385Y005876D02*
X009010Y006251D01*
X009010Y007001D01*
X009385Y007376D01*
X009385Y007751D01*
X009760Y008126D01*
X012760Y008126D01*
X013760Y009126D01*
X017135Y009126D01*
X017510Y008751D01*
X017510Y008001D01*
X017135Y007626D01*
X013510Y007626D01*
X013010Y007126D01*
X011260Y007126D01*
X011010Y006876D01*
X010760Y007626D02*
X012885Y007626D01*
X013635Y008376D01*
X016603Y008376D01*
X016667Y008311D01*
X017385Y007126D02*
X018385Y008126D01*
X018385Y010001D01*
X017510Y010001D01*
X017352Y010190D01*
X015885Y012001D02*
X015885Y013501D01*
X017510Y015126D01*
X018260Y015126D01*
X018760Y015626D01*
X018760Y016626D01*
X018010Y017376D01*
X017510Y017376D01*
X016510Y018376D01*
X016510Y019251D01*
X016885Y019626D01*
X016885Y020501D01*
X015760Y021626D01*
X014760Y021626D01*
X013885Y022501D01*
X012760Y023126D01*
X013010Y022376D02*
X014260Y021126D01*
X014510Y021126D01*
X014760Y020876D01*
X014760Y018376D01*
X014885Y018251D01*
X015010Y018126D01*
X015760Y018126D01*
X017760Y016126D01*
X019260Y017126D02*
X019260Y011876D01*
X015885Y012001D02*
X015135Y011251D01*
X014135Y011251D01*
X014135Y012251D02*
X015135Y012251D01*
X014135Y012251D02*
X013635Y012751D01*
X013635Y014376D01*
X014010Y014751D01*
X014010Y016126D01*
X013510Y016626D01*
X013510Y017876D01*
X013885Y018251D01*
X014260Y019251D01*
X014010Y020376D01*
X013385Y020751D02*
X013260Y020626D01*
X013260Y019628D01*
X013540Y019348D01*
X013510Y019378D01*
X012760Y018376D02*
X012760Y021126D01*
X013010Y021751D02*
X013385Y021376D01*
X013385Y020751D01*
X013010Y021751D02*
X009260Y021751D01*
X008760Y021251D01*
X008760Y021126D01*
X007760Y021126D02*
X008010Y020376D01*
X008760Y019751D02*
X007260Y019751D01*
X006385Y020626D01*
X006350Y020626D01*
X006334Y020641D01*
X005510Y021251D02*
X005885Y021626D01*
X006760Y021626D01*
X007760Y022626D01*
X007760Y023126D01*
X008760Y023126D02*
X008760Y022876D01*
X009260Y022376D01*
X013010Y022376D01*
X013885Y023501D02*
X014010Y023501D01*
X014385Y023876D01*
X015510Y023876D01*
X016260Y023126D01*
X017760Y023126D01*
X015385Y022876D02*
X015260Y023001D01*
X014635Y023001D01*
X013885Y023501D02*
X013510Y023876D01*
X011135Y023876D01*
X010760Y023501D01*
X010760Y023126D01*
X009760Y023126D02*
X009760Y023376D01*
X009260Y023876D01*
X005010Y023876D01*
X004760Y023626D01*
X004760Y013126D01*
X003760Y012126D01*
X004260Y010626D02*
X005760Y010626D01*
X006760Y010876D02*
X006760Y011626D01*
X006760Y010876D02*
X007760Y009876D01*
X009760Y009876D01*
X010135Y010251D01*
X010135Y009751D01*
X010385Y009501D01*
X011760Y009501D01*
X012135Y009876D01*
X012135Y010376D01*
X012635Y010876D01*
X013135Y012001D02*
X011385Y010251D01*
X011010Y010251D01*
X011260Y010876D02*
X010760Y010876D01*
X010135Y010251D01*
X011260Y010876D02*
X012635Y012251D01*
X012635Y013751D01*
X011885Y014501D01*
X011885Y016001D01*
X011760Y016126D01*
X011760Y016376D01*
X011260Y016001D02*
X011260Y019126D01*
X011760Y019626D01*
X010760Y021126D01*
X009760Y021126D02*
X009760Y020751D01*
X008760Y019751D01*
X009135Y019501D02*
X008760Y019126D01*
X006350Y019126D01*
X006334Y019110D01*
X006760Y018126D02*
X005760Y018126D01*
X005510Y018376D01*
X005510Y021251D01*
X007760Y018376D02*
X007760Y018126D01*
X008385Y017501D01*
X008385Y016126D01*
X006885Y014626D01*
X005760Y014626D01*
X005385Y014251D01*
X005385Y013126D01*
X005635Y012876D01*
X006334Y013641D02*
X006775Y013641D01*
X007760Y014626D01*
X007760Y015001D01*
X008760Y016001D01*
X008760Y018501D01*
X009260Y019001D01*
X010010Y019001D01*
X010260Y018751D01*
X010260Y018001D01*
X010760Y017501D01*
X010760Y016376D01*
X011260Y016001D02*
X010510Y015251D01*
X010510Y014501D01*
X011010Y014001D01*
X011010Y013376D01*
X010260Y012626D01*
X009260Y012626D01*
X008760Y012126D01*
X008760Y013126D02*
X008885Y013251D01*
X008885Y014751D01*
X008760Y014876D01*
X008760Y015126D01*
X009760Y016126D01*
X009760Y016376D01*
X010260Y016876D02*
X010260Y015876D01*
X009885Y015501D01*
X009885Y013626D01*
X011260Y014501D02*
X011635Y014126D01*
X011635Y013876D01*
X011885Y013626D01*
X011885Y012126D01*
X013135Y012001D02*
X013135Y013876D01*
X012260Y014751D01*
X012260Y017126D01*
X011760Y017626D01*
X011760Y018376D01*
X010760Y018376D02*
X010760Y018876D01*
X010135Y019501D01*
X009135Y019501D01*
X009760Y018376D02*
X009760Y017376D01*
X010260Y016876D01*
X011260Y015001D02*
X011260Y014501D01*
X013260Y015001D02*
X012760Y016376D01*
X014635Y016751D02*
X014385Y017501D01*
X015385Y019876D02*
X015635Y020126D01*
X016260Y020126D01*
X017479Y018653D02*
X017732Y018653D01*
X019260Y017126D01*
X018969Y020120D02*
X018963Y020126D01*
X017760Y020126D01*
X015760Y015126D02*
X014635Y013751D01*
X010760Y007626D02*
X010260Y007126D01*
X010260Y003126D01*
X010010Y002876D01*
X009385Y002876D01*
X009385Y003876D02*
X008510Y003876D01*
X007760Y004626D01*
X005760Y006626D02*
X004760Y005626D01*
X004760Y004626D01*
X003260Y006126D02*
X003760Y006626D01*
X003760Y007626D01*
X003260Y006126D02*
X003260Y001126D01*
X011760Y006376D02*
X012010Y006126D01*
X012010Y005501D01*
X011760Y006376D02*
X013010Y006376D01*
X013760Y007126D01*
X017385Y007126D01*
X016760Y006626D02*
X016760Y005876D01*
X015760Y005876D01*
X016760Y006626D02*
X014260Y006626D01*
X016760Y006626D02*
X018385Y005001D01*
X018385Y004001D01*
X016760Y002626D02*
X016760Y001876D01*
X016760Y002626D02*
X016260Y003126D01*
X014760Y003126D01*
X013760Y002126D01*
X013760Y001126D01*
X013260Y001626D01*
X012260Y001626D01*
X014760Y001626D02*
X015010Y001876D01*
X015760Y001876D01*
X015760Y001126D01*
X016260Y000626D01*
X017510Y000626D01*
X018385Y001501D01*
X007760Y016376D02*
X007760Y017126D01*
X006760Y018126D01*
D23*
X011135Y012251D02*
X011010Y012126D01*
M02*
