G75*
%MOIN*%
%OFA0B0*%
%FSLAX24Y24*%
%IPPOS*%
%LPD*%
%AMOC8*
5,1,8,0,0,1.08239X$1,22.5*
%
%ADD10C,0.0715*%
%ADD11C,0.0635*%
%ADD12OC8,0.0715*%
%ADD13C,0.0985*%
%ADD14C,0.0835*%
%ADD15C,0.0789*%
%ADD16OC8,0.1320*%
%ADD17C,0.1320*%
%ADD18C,0.0159*%
%ADD19C,0.1261*%
%ADD20C,0.0143*%
%ADD21OC8,0.0795*%
D10*
X006067Y002876D02*
X006702Y002876D01*
X006702Y003876D02*
X006067Y003876D01*
X006067Y004876D02*
X006702Y004876D01*
X006702Y005876D02*
X006067Y005876D01*
X009067Y005876D02*
X009702Y005876D01*
X009702Y004876D02*
X009067Y004876D01*
X009067Y003876D02*
X009702Y003876D01*
X009702Y002876D02*
X009067Y002876D01*
X014635Y013433D02*
X014635Y014068D01*
X014635Y016433D02*
X014635Y017068D01*
X015385Y019558D02*
X015385Y020193D01*
X015385Y022558D02*
X015385Y023193D01*
D11*
X005037Y002626D02*
X004482Y002626D01*
X004482Y004626D02*
X005037Y004626D01*
D12*
X005760Y006626D03*
X005760Y007626D03*
X005260Y008626D03*
X004260Y008626D03*
X003760Y007626D03*
X003760Y006626D03*
X006760Y009626D03*
X007260Y008626D03*
X007010Y007001D03*
X009010Y007001D03*
X011010Y006876D03*
X011760Y006376D03*
X012010Y005501D03*
X011010Y005876D03*
X012010Y003501D03*
X008010Y001751D03*
X006010Y001751D03*
X011010Y010251D03*
X013010Y010251D03*
X013260Y015001D03*
X011260Y015001D03*
X008760Y013126D03*
X008760Y012126D03*
X008760Y011126D03*
X007760Y011126D03*
X007760Y012126D03*
X007760Y013126D03*
X006760Y011626D03*
X004260Y010626D03*
X008010Y020376D03*
X013885Y022501D03*
X014635Y023001D03*
X013885Y023501D03*
X016260Y023126D03*
X014010Y020376D03*
X013885Y018251D03*
X014385Y017501D03*
X014885Y018251D03*
X015760Y018126D03*
X016260Y020126D03*
X015760Y015126D03*
D13*
X018385Y010453D02*
X018385Y009548D01*
X018385Y004453D02*
X018385Y003548D01*
D14*
X016760Y001876D03*
X015760Y001876D03*
X014760Y001626D03*
X013760Y001126D03*
X013760Y005126D03*
X014760Y005626D03*
X015760Y005876D03*
X016760Y005876D03*
X014135Y011251D03*
X015135Y012251D03*
X011135Y012251D03*
X010135Y011251D03*
D15*
X009760Y016376D03*
X010760Y016376D03*
X011760Y016376D03*
X012760Y016376D03*
X012760Y018376D03*
X011760Y018376D03*
X010760Y018376D03*
X009760Y018376D03*
X007760Y018376D03*
X007760Y016376D03*
X007760Y021126D03*
X008760Y021126D03*
X009760Y021126D03*
X010760Y021126D03*
X010760Y023126D03*
X009760Y023126D03*
X008760Y023126D03*
X007760Y023126D03*
X012760Y023126D03*
X012760Y021126D03*
D16*
X011760Y019626D03*
X008885Y014751D03*
X009885Y013626D03*
X017760Y013126D03*
X017760Y020126D03*
X012260Y001626D03*
X018385Y001501D03*
D17*
X017760Y016126D03*
X017760Y023126D03*
D18*
X017201Y010016D02*
X017121Y009936D01*
X017009Y010176D01*
X017098Y010421D01*
X017338Y010533D01*
X017583Y010444D01*
X017695Y010204D01*
X017606Y009959D01*
X017366Y009847D01*
X017121Y009936D01*
X017207Y010032D01*
X017137Y010182D01*
X017194Y010335D01*
X017344Y010405D01*
X017497Y010348D01*
X017567Y010198D01*
X017510Y010045D01*
X017360Y009975D01*
X017207Y010032D01*
X017295Y010127D01*
X017267Y010187D01*
X017289Y010247D01*
X017349Y010275D01*
X017409Y010253D01*
X017437Y010193D01*
X017415Y010133D01*
X017355Y010105D01*
X017295Y010127D01*
X016516Y008137D02*
X016436Y008057D01*
X016324Y008297D01*
X016413Y008542D01*
X016653Y008654D01*
X016898Y008565D01*
X017010Y008325D01*
X016921Y008080D01*
X016681Y007968D01*
X016436Y008057D01*
X016522Y008153D01*
X016452Y008303D01*
X016509Y008456D01*
X016659Y008526D01*
X016812Y008469D01*
X016882Y008319D01*
X016825Y008166D01*
X016675Y008096D01*
X016522Y008153D01*
X016610Y008248D01*
X016582Y008308D01*
X016604Y008368D01*
X016664Y008396D01*
X016724Y008374D01*
X016752Y008314D01*
X016730Y008254D01*
X016670Y008226D01*
X016610Y008248D01*
D19*
X006334Y013641D03*
X006334Y015610D03*
X006334Y017141D03*
X006334Y019110D03*
X006334Y020641D03*
X006334Y022610D03*
X003578Y022610D03*
X003578Y020641D03*
X003578Y019110D03*
X003578Y017141D03*
X003578Y015610D03*
X003578Y013641D03*
D20*
X013351Y019441D02*
X013279Y019513D01*
X013474Y019650D01*
X013705Y019609D01*
X013842Y019414D01*
X013801Y019183D01*
X013606Y019046D01*
X013375Y019087D01*
X013238Y019282D01*
X013279Y019513D01*
X013377Y019451D01*
X013499Y019537D01*
X013643Y019511D01*
X013729Y019389D01*
X013703Y019245D01*
X013581Y019159D01*
X013437Y019185D01*
X013351Y019307D01*
X013377Y019451D01*
X013476Y019388D01*
X013524Y019422D01*
X013580Y019412D01*
X013614Y019364D01*
X013604Y019308D01*
X013556Y019274D01*
X013500Y019284D01*
X013466Y019332D01*
X013476Y019388D01*
X017290Y018746D02*
X017218Y018818D01*
X017413Y018955D01*
X017644Y018914D01*
X017781Y018719D01*
X017740Y018488D01*
X017545Y018351D01*
X017314Y018392D01*
X017177Y018587D01*
X017218Y018818D01*
X017316Y018756D01*
X017438Y018842D01*
X017582Y018816D01*
X017668Y018694D01*
X017642Y018550D01*
X017520Y018464D01*
X017376Y018490D01*
X017290Y018612D01*
X017316Y018756D01*
X017415Y018693D01*
X017463Y018727D01*
X017519Y018717D01*
X017553Y018669D01*
X017543Y018613D01*
X017495Y018579D01*
X017439Y018589D01*
X017405Y018637D01*
X017415Y018693D01*
X018909Y019913D02*
X018837Y019841D01*
X018678Y020018D01*
X018690Y020252D01*
X018867Y020411D01*
X019101Y020399D01*
X019260Y020222D01*
X019248Y019988D01*
X019071Y019829D01*
X018837Y019841D01*
X018886Y019946D01*
X018787Y020056D01*
X018795Y020203D01*
X018905Y020302D01*
X019052Y020294D01*
X019151Y020184D01*
X019143Y020037D01*
X019033Y019938D01*
X018886Y019946D01*
X018937Y020051D01*
X018897Y020095D01*
X018900Y020152D01*
X018944Y020192D01*
X019001Y020189D01*
X019041Y020145D01*
X019038Y020088D01*
X018994Y020048D01*
X018937Y020051D01*
X018490Y011924D02*
X018418Y011852D01*
X018259Y012029D01*
X018271Y012263D01*
X018448Y012422D01*
X018682Y012410D01*
X018841Y012233D01*
X018829Y011999D01*
X018652Y011840D01*
X018418Y011852D01*
X018467Y011957D01*
X018368Y012067D01*
X018376Y012214D01*
X018486Y012313D01*
X018633Y012305D01*
X018732Y012195D01*
X018724Y012048D01*
X018614Y011949D01*
X018467Y011957D01*
X018518Y012062D01*
X018478Y012106D01*
X018481Y012163D01*
X018525Y012203D01*
X018582Y012200D01*
X018622Y012156D01*
X018619Y012099D01*
X018575Y012059D01*
X018518Y012062D01*
D21*
X005760Y012126D03*
X003760Y012126D03*
M02*
