G75*
%MOIN*%
%OFA0B0*%
%FSLAX24Y24*%
%IPPOS*%
%LPD*%
%AMOC8*
5,1,8,0,0,1.08239X$1,22.5*
%
%ADD10C,0.0080*%
%ADD11C,0.0060*%
%ADD12C,0.0020*%
%ADD13C,0.0120*%
%ADD14R,0.2000X0.0200*%
%ADD15R,0.0500X0.0450*%
%ADD16R,0.1000X0.0200*%
%ADD17R,0.0300X0.0750*%
%ADD18R,0.0250X0.1000*%
%ADD19R,0.1500X0.0250*%
%ADD20R,0.1020X0.0320*%
%ADD21R,0.0200X0.1000*%
%ADD22R,0.0750X0.0300*%
%ADD23C,0.0240*%
%ADD24R,0.0700X0.0150*%
%ADD25R,0.0200X0.0550*%
%ADD26R,0.0197X0.0787*%
%ADD27R,0.1181X0.0197*%
D10*
X003394Y001014D02*
X003394Y001154D01*
X003464Y001224D01*
X003744Y001224D01*
X003815Y001154D01*
X003815Y001014D01*
X003744Y000944D01*
X003464Y000944D01*
X003394Y001014D01*
X003674Y001084D02*
X003815Y001224D01*
X003815Y001405D02*
X003815Y001685D01*
X003815Y001545D02*
X003394Y001545D01*
X003534Y001405D01*
X006575Y001235D02*
X006575Y000955D01*
X006645Y000885D01*
X006785Y000885D01*
X006855Y000955D01*
X007035Y001095D02*
X007315Y001095D01*
X007245Y000885D02*
X007245Y001305D01*
X007035Y001095D01*
X006855Y001235D02*
X006785Y001305D01*
X006645Y001305D01*
X006575Y001235D01*
X008447Y001850D02*
X008587Y001850D01*
X008517Y001850D02*
X008517Y002270D01*
X008447Y002270D02*
X008587Y002270D01*
X008754Y002200D02*
X008754Y001920D01*
X008824Y001850D01*
X008964Y001850D01*
X009034Y001920D01*
X009214Y001850D02*
X009494Y001850D01*
X009354Y001850D02*
X009354Y002270D01*
X009214Y002130D01*
X009034Y002200D02*
X008964Y002270D01*
X008824Y002270D01*
X008754Y002200D01*
X010375Y004860D02*
X010515Y004860D01*
X010445Y004860D02*
X010445Y005280D01*
X010375Y005280D02*
X010515Y005280D01*
X010681Y005210D02*
X010681Y004930D01*
X010752Y004860D01*
X010892Y004860D01*
X010962Y004930D01*
X011142Y004860D02*
X011422Y005140D01*
X011422Y005210D01*
X011352Y005280D01*
X011212Y005280D01*
X011142Y005210D01*
X010962Y005210D02*
X010892Y005280D01*
X010752Y005280D01*
X010681Y005210D01*
X011142Y004860D02*
X011422Y004860D01*
X011700Y003080D02*
X011700Y002660D01*
X011980Y002660D01*
X012160Y002660D02*
X012160Y003080D01*
X012440Y002660D01*
X012440Y003080D01*
X012620Y003010D02*
X012690Y003080D01*
X012830Y003080D01*
X012901Y003010D01*
X012901Y002940D01*
X012620Y002660D01*
X012901Y002660D01*
X013304Y000730D02*
X013514Y000730D01*
X013584Y000660D01*
X013584Y000380D01*
X013514Y000310D01*
X013304Y000310D01*
X013304Y000730D01*
X013764Y000520D02*
X014044Y000520D01*
X013974Y000310D02*
X013974Y000730D01*
X013764Y000520D01*
X014554Y000810D02*
X014764Y000810D01*
X014834Y000880D01*
X014834Y001160D01*
X014764Y001230D01*
X014554Y001230D01*
X014554Y000810D01*
X015014Y000880D02*
X015084Y000810D01*
X015224Y000810D01*
X015294Y000880D01*
X015294Y001020D01*
X015224Y001090D01*
X015154Y001090D01*
X015014Y001020D01*
X015014Y001230D01*
X015294Y001230D01*
X017950Y002535D02*
X018230Y002535D01*
X018410Y002535D02*
X018410Y002955D01*
X018690Y002535D01*
X018690Y002955D01*
X018870Y002815D02*
X019010Y002955D01*
X019010Y002535D01*
X018870Y002535D02*
X019151Y002535D01*
X017950Y002535D02*
X017950Y002955D01*
X017045Y006610D02*
X016905Y006610D01*
X016835Y006680D01*
X016655Y006680D02*
X016655Y006960D01*
X016585Y007030D01*
X016375Y007030D01*
X016375Y006610D01*
X016585Y006610D01*
X016655Y006680D01*
X016835Y006960D02*
X016905Y007030D01*
X017045Y007030D01*
X017115Y006960D01*
X017115Y006890D01*
X017045Y006820D01*
X017115Y006750D01*
X017115Y006680D01*
X017045Y006610D01*
X017045Y006820D02*
X016975Y006820D01*
X016985Y007320D02*
X016985Y007530D01*
X016914Y007600D01*
X016634Y007600D01*
X016564Y007530D01*
X016564Y007320D01*
X016985Y007320D01*
X016985Y007780D02*
X016985Y008061D01*
X016985Y007921D02*
X016564Y007921D01*
X016704Y007780D01*
X016045Y007030D02*
X015905Y007030D01*
X015835Y006960D01*
X015655Y006960D02*
X015585Y007030D01*
X015375Y007030D01*
X015375Y006610D01*
X015585Y006610D01*
X015655Y006680D01*
X015655Y006960D01*
X015835Y006610D02*
X016115Y006890D01*
X016115Y006960D01*
X016045Y007030D01*
X016115Y006610D02*
X015835Y006610D01*
X014864Y007835D02*
X014864Y008255D01*
X014653Y008045D01*
X014934Y008045D01*
X014473Y008115D02*
X014473Y008185D01*
X014403Y008255D01*
X014263Y008255D01*
X014193Y008185D01*
X014013Y008185D02*
X014013Y007905D01*
X013943Y007835D01*
X013803Y007835D01*
X013733Y007905D01*
X014013Y008185D01*
X013943Y008255D01*
X013803Y008255D01*
X013733Y008185D01*
X013733Y007905D01*
X013552Y007835D02*
X013272Y007835D01*
X013552Y008115D01*
X013552Y008185D01*
X013482Y008255D01*
X013342Y008255D01*
X013272Y008185D01*
X013272Y008585D02*
X013482Y008585D01*
X013553Y008655D01*
X013553Y008935D01*
X013482Y009005D01*
X013272Y009005D01*
X013272Y008585D01*
X013733Y008585D02*
X013873Y008585D01*
X013803Y008585D02*
X013803Y009005D01*
X013733Y009005D02*
X013873Y009005D01*
X014040Y008865D02*
X014040Y008585D01*
X014040Y008795D02*
X014320Y008795D01*
X014320Y008865D02*
X014320Y008585D01*
X014500Y008585D02*
X014500Y009005D01*
X014320Y008865D02*
X014180Y009005D01*
X014040Y008865D01*
X014013Y009335D02*
X014013Y009755D01*
X014193Y009755D02*
X014193Y009335D01*
X014473Y009335D01*
X014333Y009545D02*
X014193Y009545D01*
X014193Y009755D02*
X014473Y009755D01*
X014013Y009335D02*
X013733Y009755D01*
X013733Y009335D01*
X013553Y009405D02*
X013553Y009685D01*
X013482Y009755D01*
X013342Y009755D01*
X013272Y009685D01*
X013272Y009405D01*
X013342Y009335D01*
X013482Y009335D01*
X013553Y009405D01*
X013092Y009755D02*
X012812Y009755D01*
X012952Y009755D02*
X012952Y009335D01*
X012632Y009545D02*
X012351Y009545D01*
X012171Y009335D02*
X011891Y009335D01*
X011891Y009755D01*
X012171Y009755D01*
X012031Y009545D02*
X011891Y009545D01*
X011711Y009475D02*
X011711Y009405D01*
X011641Y009335D01*
X011501Y009335D01*
X011431Y009405D01*
X011501Y009545D02*
X011641Y009545D01*
X011711Y009475D01*
X011711Y009685D02*
X011641Y009755D01*
X011501Y009755D01*
X011431Y009685D01*
X011431Y009615D01*
X011501Y009545D01*
X011251Y009335D02*
X010970Y009335D01*
X010970Y009755D01*
X010790Y009755D02*
X010790Y009405D01*
X010720Y009335D01*
X010580Y009335D01*
X010510Y009405D01*
X010510Y009755D01*
X010330Y009685D02*
X010330Y009545D01*
X010260Y009475D01*
X010050Y009475D01*
X010050Y009335D02*
X010050Y009755D01*
X010260Y009755D01*
X010330Y009685D01*
X010260Y009005D02*
X010050Y009005D01*
X010050Y008585D01*
X010050Y008725D02*
X010260Y008725D01*
X010330Y008795D01*
X010330Y008935D01*
X010260Y009005D01*
X010190Y008725D02*
X010330Y008585D01*
X010510Y008655D02*
X010510Y008935D01*
X010580Y009005D01*
X010720Y009005D01*
X010790Y008935D01*
X010790Y008655D01*
X010720Y008585D01*
X010580Y008585D01*
X010510Y008655D01*
X010503Y008115D02*
X010433Y008045D01*
X010433Y007905D01*
X010503Y007835D01*
X010643Y007835D01*
X010713Y007975D02*
X010433Y007975D01*
X010503Y008115D02*
X010643Y008115D01*
X010713Y008045D01*
X010713Y007975D01*
X010894Y008115D02*
X011034Y007835D01*
X011174Y008115D01*
X011354Y007905D02*
X011354Y007835D01*
X011424Y007835D01*
X011424Y007905D01*
X011354Y007905D01*
X011431Y008585D02*
X011431Y008865D01*
X011571Y009005D01*
X011711Y008865D01*
X011711Y008585D01*
X011891Y008585D02*
X011891Y009005D01*
X012101Y009005D01*
X012171Y008935D01*
X012171Y008795D01*
X012101Y008725D01*
X011891Y008725D01*
X012031Y008725D02*
X012171Y008585D01*
X012492Y008585D02*
X012492Y008795D01*
X012632Y008935D01*
X012632Y009005D01*
X012492Y008795D02*
X012351Y008935D01*
X012351Y009005D01*
X012255Y008255D02*
X012045Y008255D01*
X012045Y007835D01*
X012255Y007835D01*
X012325Y007905D01*
X012325Y007975D01*
X012255Y008045D01*
X012045Y008045D01*
X012255Y008045D02*
X012325Y008115D01*
X012325Y008185D01*
X012255Y008255D01*
X012575Y007905D02*
X012575Y007835D01*
X012645Y007835D01*
X012645Y007905D01*
X012575Y007905D01*
X012645Y007835D02*
X012505Y007695D01*
X011711Y008795D02*
X011431Y008795D01*
X011251Y009005D02*
X010970Y009005D01*
X011110Y009005D02*
X011110Y008585D01*
X010260Y008115D02*
X010190Y008115D01*
X010050Y007975D01*
X010050Y007835D02*
X010050Y008115D01*
X010120Y007505D02*
X010120Y007225D01*
X010120Y007365D02*
X009699Y007365D01*
X009839Y007225D01*
X009769Y007044D02*
X009699Y006974D01*
X009699Y006834D01*
X009769Y006764D01*
X010049Y006764D01*
X010120Y006834D01*
X010120Y006974D01*
X010049Y007044D01*
X008370Y008459D02*
X008370Y008599D01*
X008299Y008669D01*
X008299Y008850D02*
X008370Y008920D01*
X008370Y009060D01*
X008299Y009130D01*
X008159Y009130D01*
X008089Y009060D01*
X008089Y008990D01*
X008159Y008850D01*
X007949Y008850D01*
X007949Y009130D01*
X008019Y008669D02*
X007949Y008599D01*
X007949Y008459D01*
X008019Y008389D01*
X008299Y008389D01*
X008370Y008459D01*
X008339Y010235D02*
X008619Y010235D01*
X008479Y010235D02*
X008479Y010655D01*
X008339Y010515D01*
X008159Y010585D02*
X008089Y010655D01*
X007949Y010655D01*
X007879Y010585D01*
X007879Y010515D01*
X007949Y010445D01*
X008089Y010445D01*
X008159Y010375D01*
X008159Y010305D01*
X008089Y010235D01*
X007949Y010235D01*
X007879Y010305D01*
X009374Y011468D02*
X009374Y011679D01*
X009444Y011749D01*
X009584Y011749D01*
X009654Y011679D01*
X009654Y011468D01*
X009795Y011468D02*
X009374Y011468D01*
X009374Y011929D02*
X009514Y012069D01*
X009374Y012209D01*
X009795Y012209D01*
X009795Y011929D02*
X009374Y011929D01*
X009374Y012389D02*
X009374Y012669D01*
X009374Y012529D02*
X009795Y012529D01*
X009795Y012850D02*
X009795Y013130D01*
X009584Y012990D02*
X009584Y012850D01*
X009374Y012850D02*
X009374Y013130D01*
X009374Y012850D02*
X009795Y012850D01*
X009950Y014660D02*
X009950Y015080D01*
X010160Y015080D01*
X010230Y015010D01*
X010230Y014870D01*
X010160Y014800D01*
X009950Y014800D01*
X010410Y014730D02*
X010480Y014660D01*
X010620Y014660D01*
X010690Y014730D01*
X010870Y014730D02*
X010870Y015010D01*
X010940Y015080D01*
X011080Y015080D01*
X011151Y015010D01*
X011151Y014730D01*
X011080Y014660D01*
X010940Y014660D01*
X010870Y014730D01*
X010690Y015010D02*
X010620Y015080D01*
X010480Y015080D01*
X010410Y015010D01*
X010410Y014730D01*
X011331Y014660D02*
X011331Y015080D01*
X011471Y014940D01*
X011611Y015080D01*
X011611Y014660D01*
X011925Y015460D02*
X011925Y015880D01*
X011995Y015670D02*
X012205Y015460D01*
X012385Y015460D02*
X012665Y015460D01*
X012525Y015460D02*
X012525Y015880D01*
X012385Y015740D01*
X012205Y015880D02*
X011925Y015600D01*
X013173Y016128D02*
X007346Y016128D01*
X007346Y018962D01*
X013173Y018962D01*
X013173Y016128D01*
X013549Y016289D02*
X013549Y016569D01*
X013549Y016429D02*
X013970Y016429D01*
X013970Y016750D02*
X013689Y017030D01*
X013619Y017030D01*
X013549Y016960D01*
X013549Y016820D01*
X013619Y016750D01*
X013970Y016750D02*
X013970Y017030D01*
X013544Y014601D02*
X013824Y014320D01*
X013895Y014320D01*
X013824Y014140D02*
X013544Y014140D01*
X013474Y014070D01*
X013474Y013860D01*
X013895Y013860D01*
X013895Y014070D01*
X013824Y014140D01*
X013474Y014320D02*
X013474Y014601D01*
X013544Y014601D01*
X014804Y011605D02*
X015014Y011605D01*
X015084Y011535D01*
X015084Y011255D01*
X015014Y011185D01*
X014804Y011185D01*
X014804Y011605D01*
X015264Y011535D02*
X015264Y011465D01*
X015334Y011395D01*
X015474Y011395D01*
X015544Y011325D01*
X015544Y011255D01*
X015474Y011185D01*
X015334Y011185D01*
X015264Y011255D01*
X015264Y011325D01*
X015334Y011395D01*
X015474Y011395D02*
X015544Y011465D01*
X015544Y011535D01*
X015474Y011605D01*
X015334Y011605D01*
X015264Y011535D01*
X015804Y012185D02*
X016014Y012185D01*
X016084Y012255D01*
X016084Y012535D01*
X016014Y012605D01*
X015804Y012605D01*
X015804Y012185D01*
X016264Y012255D02*
X016334Y012185D01*
X016474Y012185D01*
X016544Y012255D01*
X016544Y012535D01*
X016474Y012605D01*
X016334Y012605D01*
X016264Y012535D01*
X016264Y012465D01*
X016334Y012395D01*
X016544Y012395D01*
X016649Y013985D02*
X016369Y013985D01*
X016299Y014055D01*
X016299Y014195D01*
X016369Y014265D01*
X016369Y014445D02*
X016439Y014445D01*
X016509Y014515D01*
X016509Y014656D01*
X016579Y014726D01*
X016649Y014726D01*
X016720Y014656D01*
X016720Y014515D01*
X016649Y014445D01*
X016579Y014445D01*
X016509Y014515D01*
X016509Y014656D02*
X016439Y014726D01*
X016369Y014726D01*
X016299Y014656D01*
X016299Y014515D01*
X016369Y014445D01*
X016649Y014265D02*
X016720Y014195D01*
X016720Y014055D01*
X016649Y013985D01*
X016649Y016239D02*
X016649Y016449D01*
X016719Y016519D01*
X016859Y016519D01*
X016929Y016449D01*
X016929Y016239D01*
X016929Y016379D02*
X017070Y016519D01*
X016859Y016700D02*
X016859Y016980D01*
X016649Y016910D02*
X016859Y016700D01*
X016649Y016910D02*
X017070Y016910D01*
X017070Y016239D02*
X016649Y016239D01*
X013649Y019885D02*
X013509Y019885D01*
X013439Y019955D01*
X013509Y020095D02*
X013649Y020095D01*
X013719Y020025D01*
X013719Y019955D01*
X013649Y019885D01*
X013509Y020095D02*
X013439Y020165D01*
X013439Y020235D01*
X013509Y020305D01*
X013649Y020305D01*
X013719Y020235D01*
X013259Y019885D02*
X012979Y019885D01*
X012979Y020305D01*
X012799Y020235D02*
X012799Y020095D01*
X012729Y020025D01*
X012518Y020025D01*
X012518Y019885D02*
X012518Y020305D01*
X012729Y020305D01*
X012799Y020235D01*
X013173Y020878D02*
X013173Y023712D01*
X007346Y023712D01*
X007346Y020878D01*
X013173Y020878D01*
X013519Y021585D02*
X013519Y022005D01*
X013379Y022005D02*
X013659Y022005D01*
X013839Y021865D02*
X013979Y022005D01*
X013979Y021585D01*
X013839Y021585D02*
X014119Y021585D01*
X014474Y021601D02*
X014544Y021461D01*
X014684Y021320D01*
X014684Y021531D01*
X014754Y021601D01*
X014824Y021601D01*
X014895Y021531D01*
X014895Y021390D01*
X014824Y021320D01*
X014684Y021320D01*
X014544Y021140D02*
X014474Y021070D01*
X014474Y020860D01*
X014895Y020860D01*
X014895Y021070D01*
X014824Y021140D01*
X014544Y021140D01*
X012915Y023960D02*
X012635Y023960D01*
X012915Y024240D01*
X012915Y024310D01*
X012845Y024380D01*
X012705Y024380D01*
X012635Y024310D01*
X012455Y024380D02*
X012175Y024100D01*
X012245Y024170D02*
X012455Y023960D01*
X012175Y023960D02*
X012175Y024380D01*
X012058Y020305D02*
X012268Y020305D01*
X012338Y020235D01*
X012338Y020095D01*
X012268Y020025D01*
X012058Y020025D01*
X012058Y019885D02*
X012058Y020305D01*
X008836Y019755D02*
X008556Y019755D01*
X008556Y019335D01*
X008836Y019335D01*
X008696Y019545D02*
X008556Y019545D01*
X008376Y019755D02*
X008095Y019755D01*
X008235Y019755D02*
X008235Y019335D01*
X007915Y019335D02*
X007915Y019755D01*
X007775Y019615D01*
X007635Y019755D01*
X007635Y019335D01*
X007455Y019405D02*
X007455Y019685D01*
X007385Y019755D01*
X007175Y019755D01*
X007175Y019335D01*
X007385Y019335D01*
X007455Y019405D01*
X007345Y015030D02*
X006924Y015030D01*
X007064Y014890D01*
X006924Y014750D01*
X007345Y014750D01*
X007274Y014569D02*
X006994Y014569D01*
X006924Y014499D01*
X006924Y014359D01*
X006994Y014289D01*
X007274Y014289D01*
X007345Y014359D01*
X007345Y014499D01*
X007274Y014569D01*
X007274Y014109D02*
X007345Y014039D01*
X007345Y013899D01*
X007274Y013829D01*
X006994Y013829D01*
X006924Y013899D01*
X006924Y014039D01*
X006994Y014109D01*
X006994Y013649D02*
X006924Y013579D01*
X006924Y013368D01*
X007345Y013368D01*
X007345Y013579D01*
X007274Y013649D01*
X006994Y013649D01*
X005390Y013145D02*
X005320Y013215D01*
X005180Y013215D01*
X005110Y013145D01*
X004930Y013145D02*
X004930Y013005D01*
X004860Y012935D01*
X004650Y012935D01*
X004790Y012935D02*
X004930Y012795D01*
X005110Y012795D02*
X005390Y013075D01*
X005390Y013145D01*
X005390Y012795D02*
X005110Y012795D01*
X004930Y013145D02*
X004860Y013215D01*
X004650Y013215D01*
X004650Y012795D01*
X005649Y010226D02*
X005719Y010086D01*
X005859Y009945D01*
X005859Y010156D01*
X005929Y010226D01*
X005999Y010226D01*
X006070Y010156D01*
X006070Y010015D01*
X005999Y009945D01*
X005859Y009945D01*
X005719Y009765D02*
X005649Y009695D01*
X005649Y009555D01*
X005719Y009485D01*
X005999Y009485D01*
X006070Y009555D01*
X006070Y009695D01*
X005999Y009765D01*
X003570Y009226D02*
X003570Y008945D01*
X003289Y009226D01*
X003219Y009226D01*
X003149Y009156D01*
X003149Y009015D01*
X003219Y008945D01*
X003219Y008765D02*
X003149Y008695D01*
X003149Y008555D01*
X003219Y008485D01*
X003499Y008485D01*
X003570Y008555D01*
X003570Y008695D01*
X003499Y008765D01*
X003504Y006380D02*
X003434Y006310D01*
X003434Y006240D01*
X003434Y006310D02*
X003364Y006380D01*
X003294Y006380D01*
X003224Y006310D01*
X003224Y006170D01*
X003294Y006100D01*
X003294Y005919D02*
X003224Y005849D01*
X003224Y005709D01*
X003294Y005639D01*
X003574Y005639D01*
X003645Y005709D01*
X003645Y005849D01*
X003574Y005919D01*
X003574Y006100D02*
X003645Y006170D01*
X003645Y006310D01*
X003574Y006380D01*
X003504Y006380D01*
X014193Y007835D02*
X014473Y008115D01*
X014473Y007835D02*
X014193Y007835D01*
X014500Y008585D02*
X014780Y008585D01*
X015745Y009236D02*
X015817Y009433D01*
X015907Y009475D01*
X016038Y009427D01*
X016080Y009337D01*
X016008Y009140D01*
X016056Y009271D02*
X016236Y009355D01*
X016297Y009524D02*
X016393Y009788D01*
X016345Y009656D02*
X015950Y009800D01*
X016034Y009620D01*
X015745Y009236D02*
X016140Y009092D01*
X016704Y020985D02*
X016704Y021405D01*
X016914Y021405D01*
X016984Y021335D01*
X016984Y021195D01*
X016914Y021125D01*
X016704Y021125D01*
X016844Y021125D02*
X016984Y020985D01*
X017164Y021055D02*
X017234Y020985D01*
X017374Y020985D01*
X017444Y021055D01*
X017444Y021125D01*
X017374Y021195D01*
X017304Y021195D01*
X017374Y021195D02*
X017444Y021265D01*
X017444Y021335D01*
X017374Y021405D01*
X017234Y021405D01*
X017164Y021335D01*
X018799Y021555D02*
X018869Y021485D01*
X019149Y021485D01*
X019220Y021555D01*
X019220Y021695D01*
X019149Y021765D01*
X019149Y021945D02*
X019220Y021945D01*
X019149Y021945D02*
X018869Y022226D01*
X018799Y022226D01*
X018799Y021945D01*
X018869Y021765D02*
X018799Y021695D01*
X018799Y021555D01*
X005836Y023530D02*
X005766Y023460D01*
X005626Y023460D01*
X005556Y023530D01*
X005626Y023670D02*
X005766Y023670D01*
X005836Y023600D01*
X005836Y023530D01*
X005626Y023670D02*
X005556Y023740D01*
X005556Y023810D01*
X005626Y023880D01*
X005766Y023880D01*
X005836Y023810D01*
X005376Y023460D02*
X005095Y023460D01*
X005095Y023880D01*
X004915Y023810D02*
X004915Y023670D01*
X004845Y023600D01*
X004635Y023600D01*
X004635Y023460D02*
X004635Y023880D01*
X004845Y023880D01*
X004915Y023810D01*
X004455Y023810D02*
X004455Y023530D01*
X004385Y023460D01*
X004175Y023460D01*
X004175Y023880D01*
X004385Y023880D01*
X004455Y023810D01*
D11*
X007360Y013695D02*
X009160Y013695D01*
X009160Y010895D01*
X007360Y010895D01*
X007360Y013695D01*
X007510Y012995D02*
X007510Y012645D01*
X007260Y012145D02*
X007260Y009445D01*
X007258Y009428D01*
X007254Y009411D01*
X007247Y009395D01*
X007237Y009381D01*
X007224Y009368D01*
X007210Y009358D01*
X007194Y009351D01*
X007177Y009347D01*
X007160Y009345D01*
X006360Y009345D01*
X006343Y009347D01*
X006326Y009351D01*
X006310Y009358D01*
X006296Y009368D01*
X006283Y009381D01*
X006273Y009395D01*
X006266Y009411D01*
X006262Y009428D01*
X006260Y009445D01*
X006260Y012145D01*
X006262Y012162D01*
X006266Y012179D01*
X006273Y012195D01*
X006283Y012209D01*
X006296Y012222D01*
X006310Y012232D01*
X006326Y012239D01*
X006343Y012243D01*
X006360Y012245D01*
X007160Y012245D01*
X007177Y012243D01*
X007194Y012239D01*
X007210Y012232D01*
X007224Y012222D01*
X007237Y012209D01*
X007247Y012195D01*
X007254Y012179D01*
X007258Y012162D01*
X007260Y012145D01*
X007510Y011945D02*
X007510Y011595D01*
X008060Y011045D02*
X008460Y011045D01*
X009010Y011595D02*
X009010Y011945D01*
X009010Y012645D02*
X009010Y012995D01*
X008460Y013545D02*
X008060Y013545D01*
X008788Y012896D02*
X008824Y012863D01*
X008857Y012827D01*
X008889Y012789D01*
X008918Y012750D01*
X008945Y012709D01*
X008969Y012666D01*
X008990Y012622D01*
X007732Y012896D02*
X007696Y012863D01*
X007663Y012827D01*
X007631Y012789D01*
X007602Y012750D01*
X007575Y012709D01*
X007551Y012666D01*
X007530Y012622D01*
X007747Y011895D02*
X007779Y011858D01*
X007814Y011822D01*
X007851Y011790D01*
X007890Y011761D01*
X007931Y011734D01*
X007975Y011711D01*
X008020Y011691D01*
X008066Y011675D01*
X008114Y011662D01*
X008162Y011652D01*
X008211Y011647D01*
X008260Y011645D01*
X008309Y011647D01*
X008358Y011652D01*
X008406Y011662D01*
X008454Y011675D01*
X008500Y011691D01*
X008545Y011711D01*
X008589Y011734D01*
X008630Y011761D01*
X008669Y011790D01*
X008706Y011822D01*
X008741Y011858D01*
X008773Y011895D01*
X007732Y011694D02*
X007696Y011727D01*
X007663Y011763D01*
X007631Y011801D01*
X007602Y011840D01*
X007575Y011881D01*
X007551Y011924D01*
X007530Y011968D01*
X008788Y011694D02*
X008824Y011727D01*
X008857Y011763D01*
X008889Y011801D01*
X008918Y011840D01*
X008945Y011881D01*
X008969Y011924D01*
X008990Y011968D01*
X008424Y011512D02*
X008370Y011503D01*
X008315Y011497D01*
X008260Y011495D01*
X008205Y011497D01*
X008150Y011503D01*
X008096Y011512D01*
X007747Y012695D02*
X007779Y012732D01*
X007814Y012768D01*
X007851Y012800D01*
X007890Y012829D01*
X007931Y012856D01*
X007975Y012879D01*
X008020Y012899D01*
X008066Y012915D01*
X008114Y012928D01*
X008162Y012938D01*
X008211Y012943D01*
X008260Y012945D01*
X008309Y012943D01*
X008358Y012938D01*
X008406Y012928D01*
X008454Y012915D01*
X008500Y012899D01*
X008545Y012879D01*
X008589Y012856D01*
X008630Y012829D01*
X008669Y012800D01*
X008706Y012768D01*
X008741Y012732D01*
X008773Y012695D01*
X008424Y013078D02*
X008370Y013087D01*
X008315Y013093D01*
X008260Y013095D01*
X008205Y013093D01*
X008150Y013087D01*
X008096Y013078D01*
X006760Y011395D02*
X006760Y010925D01*
X006760Y010675D02*
X006760Y010195D01*
X007610Y009295D02*
X004910Y009295D01*
X004893Y009293D01*
X004876Y009289D01*
X004860Y009282D01*
X004846Y009272D01*
X004833Y009259D01*
X004823Y009245D01*
X004816Y009229D01*
X004812Y009212D01*
X004810Y009195D01*
X004810Y008395D01*
X004760Y008445D02*
X004760Y011145D01*
X004758Y011162D01*
X004754Y011179D01*
X004747Y011195D01*
X004737Y011209D01*
X004724Y011222D01*
X004710Y011232D01*
X004694Y011239D01*
X004677Y011243D01*
X004660Y011245D01*
X003860Y011245D01*
X003843Y011243D01*
X003826Y011239D01*
X003810Y011232D01*
X003796Y011222D01*
X003783Y011209D01*
X003773Y011195D01*
X003766Y011179D01*
X003762Y011162D01*
X003760Y011145D01*
X003760Y008445D01*
X003762Y008428D01*
X003766Y008411D01*
X003773Y008395D01*
X003783Y008381D01*
X003796Y008368D01*
X003810Y008358D01*
X003826Y008351D01*
X003843Y008347D01*
X003860Y008345D01*
X004660Y008345D01*
X004677Y008347D01*
X004694Y008351D01*
X004710Y008358D01*
X004724Y008368D01*
X004737Y008381D01*
X004747Y008395D01*
X004754Y008411D01*
X004758Y008428D01*
X004760Y008445D01*
X004810Y008395D02*
X004812Y008378D01*
X004816Y008361D01*
X004823Y008345D01*
X004833Y008331D01*
X004846Y008318D01*
X004860Y008308D01*
X004876Y008301D01*
X004893Y008297D01*
X004910Y008295D01*
X007610Y008295D01*
X007627Y008297D01*
X007644Y008301D01*
X007660Y008308D01*
X007674Y008318D01*
X007687Y008331D01*
X007697Y008345D01*
X007704Y008361D01*
X007708Y008378D01*
X007710Y008395D01*
X007710Y009195D01*
X007708Y009212D01*
X007704Y009229D01*
X007697Y009245D01*
X007687Y009259D01*
X007674Y009272D01*
X007660Y009282D01*
X007644Y009289D01*
X007627Y009293D01*
X007610Y009295D01*
X006860Y008795D02*
X006380Y008795D01*
X006130Y008795D02*
X005660Y008795D01*
X006660Y007670D02*
X009360Y007670D01*
X009377Y007668D01*
X009394Y007664D01*
X009410Y007657D01*
X009424Y007647D01*
X009437Y007634D01*
X009447Y007620D01*
X009454Y007604D01*
X009458Y007587D01*
X009460Y007570D01*
X009460Y006770D01*
X009458Y006753D01*
X009454Y006736D01*
X009447Y006720D01*
X009437Y006706D01*
X009424Y006693D01*
X009410Y006683D01*
X009394Y006676D01*
X009377Y006672D01*
X009360Y006670D01*
X006660Y006670D01*
X006643Y006672D01*
X006626Y006676D01*
X006610Y006683D01*
X006596Y006693D01*
X006583Y006706D01*
X006573Y006720D01*
X006566Y006736D01*
X006562Y006753D01*
X006560Y006770D01*
X006560Y007570D01*
X006562Y007587D01*
X006566Y007604D01*
X006573Y007620D01*
X006583Y007634D01*
X006596Y007647D01*
X006610Y007657D01*
X006626Y007664D01*
X006643Y007668D01*
X006660Y007670D01*
X007410Y007170D02*
X007880Y007170D01*
X008130Y007170D02*
X008610Y007170D01*
X008985Y006545D02*
X008135Y006545D01*
X008133Y006515D01*
X008128Y006485D01*
X008119Y006456D01*
X008106Y006429D01*
X008091Y006403D01*
X008072Y006379D01*
X008051Y006358D01*
X008027Y006339D01*
X008001Y006324D01*
X007974Y006311D01*
X007945Y006302D01*
X007915Y006297D01*
X007885Y006295D01*
X007855Y006297D01*
X007825Y006302D01*
X007796Y006311D01*
X007769Y006324D01*
X007743Y006339D01*
X007719Y006358D01*
X007698Y006379D01*
X007679Y006403D01*
X007664Y006429D01*
X007651Y006456D01*
X007642Y006485D01*
X007637Y006515D01*
X007635Y006545D01*
X006785Y006545D01*
X006785Y002545D01*
X008985Y002545D01*
X008985Y006545D01*
X010360Y007370D02*
X010360Y005720D01*
X010910Y005658D02*
X010910Y005500D01*
X010910Y006432D02*
X010910Y006658D01*
X010360Y007370D02*
X010411Y007407D01*
X010464Y007442D01*
X010520Y007474D01*
X010577Y007502D01*
X010636Y007526D01*
X010696Y007547D01*
X010757Y007564D01*
X010819Y007578D01*
X010882Y007587D01*
X010945Y007593D01*
X011009Y007595D01*
X011073Y007593D01*
X011136Y007587D01*
X011199Y007578D01*
X011261Y007565D01*
X011322Y007547D01*
X011382Y007527D01*
X011441Y007502D01*
X011498Y007475D01*
X011554Y007443D01*
X011607Y007409D01*
X011658Y007371D01*
X011707Y007330D01*
X011753Y007286D01*
X011797Y007240D01*
X011838Y007191D01*
X011875Y007140D01*
X011910Y007086D01*
X011941Y007031D01*
X011969Y006974D01*
X011993Y006915D01*
X012013Y006855D01*
X012013Y006235D02*
X011993Y006175D01*
X011969Y006116D01*
X011941Y006059D01*
X011910Y006004D01*
X011875Y005950D01*
X011838Y005899D01*
X011797Y005850D01*
X011753Y005804D01*
X011707Y005760D01*
X011658Y005719D01*
X011607Y005681D01*
X011554Y005647D01*
X011498Y005615D01*
X011441Y005588D01*
X011382Y005563D01*
X011322Y005543D01*
X011261Y005525D01*
X011199Y005512D01*
X011136Y005503D01*
X011073Y005497D01*
X011009Y005495D01*
X010945Y005497D01*
X010882Y005503D01*
X010819Y005512D01*
X010757Y005526D01*
X010696Y005543D01*
X010636Y005564D01*
X010577Y005588D01*
X010520Y005616D01*
X010464Y005648D01*
X010411Y005683D01*
X010360Y005720D01*
X010910Y007432D02*
X010910Y007590D01*
X011335Y010920D02*
X012935Y010920D01*
X012935Y011920D01*
X011335Y011920D01*
X011335Y010920D01*
X011735Y011170D02*
X012135Y011420D01*
X012135Y011170D01*
X012135Y011420D02*
X012135Y011670D01*
X012135Y011420D02*
X011535Y011420D01*
X011735Y011170D02*
X011735Y011670D01*
X012135Y011420D01*
X012385Y011420D01*
X012335Y011920D02*
X013935Y011920D01*
X013935Y012920D01*
X012335Y012920D01*
X012335Y011920D01*
X012735Y012170D02*
X012735Y012670D01*
X013135Y012420D01*
X013135Y012670D01*
X013135Y012420D02*
X013135Y012170D01*
X013135Y012420D02*
X012735Y012170D01*
X012535Y012420D02*
X013135Y012420D01*
X013385Y012420D01*
X014160Y014445D02*
X014860Y014445D01*
X014860Y015645D01*
X014160Y015645D01*
X014160Y014445D01*
X014510Y014845D02*
X014510Y014995D01*
X014310Y014995D01*
X014310Y015095D01*
X014510Y014995D02*
X014310Y015395D01*
X014710Y015395D01*
X014510Y014995D01*
X014710Y014995D01*
X014510Y014995D02*
X014510Y015545D01*
X015560Y015545D02*
X015560Y015395D01*
X015562Y015378D01*
X015566Y015361D01*
X015573Y015345D01*
X015583Y015331D01*
X015596Y015318D01*
X015610Y015308D01*
X015626Y015301D01*
X015643Y015297D01*
X015660Y015295D01*
X015560Y015545D02*
X015610Y015595D01*
X015610Y017495D01*
X015560Y017545D01*
X015560Y017695D01*
X015562Y017712D01*
X015566Y017729D01*
X015573Y017745D01*
X015583Y017759D01*
X015596Y017772D01*
X015610Y017782D01*
X015626Y017789D01*
X015643Y017793D01*
X015660Y017795D01*
X015430Y017820D02*
X015272Y017820D01*
X015209Y017270D02*
X013560Y017270D01*
X013497Y017820D02*
X013339Y017820D01*
X013560Y017270D02*
X013523Y017321D01*
X013488Y017374D01*
X013456Y017430D01*
X013428Y017487D01*
X013404Y017546D01*
X013383Y017606D01*
X013366Y017667D01*
X013352Y017729D01*
X013343Y017792D01*
X013337Y017855D01*
X013335Y017919D01*
X013337Y017983D01*
X013343Y018046D01*
X013352Y018109D01*
X013365Y018171D01*
X013383Y018232D01*
X013403Y018292D01*
X013428Y018351D01*
X013456Y018408D01*
X013487Y018464D01*
X013521Y018517D01*
X013559Y018568D01*
X013600Y018617D01*
X013644Y018663D01*
X013690Y018707D01*
X013739Y018748D01*
X013790Y018785D01*
X013844Y018820D01*
X013899Y018851D01*
X013956Y018879D01*
X014015Y018903D01*
X014075Y018923D01*
X014695Y018923D02*
X014755Y018903D01*
X014814Y018879D01*
X014871Y018851D01*
X014926Y018820D01*
X014980Y018785D01*
X015031Y018748D01*
X015080Y018707D01*
X015126Y018663D01*
X015170Y018617D01*
X015211Y018568D01*
X015249Y018517D01*
X015283Y018464D01*
X015315Y018408D01*
X015342Y018351D01*
X015367Y018292D01*
X015387Y018232D01*
X015405Y018171D01*
X015418Y018109D01*
X015427Y018046D01*
X015433Y017983D01*
X015435Y017919D01*
X015433Y017855D01*
X015427Y017792D01*
X015418Y017729D01*
X015404Y017667D01*
X015387Y017606D01*
X015366Y017546D01*
X015342Y017487D01*
X015314Y017430D01*
X015282Y017374D01*
X015247Y017321D01*
X015210Y017270D01*
X016410Y017495D02*
X016410Y015595D01*
X016460Y015545D01*
X016460Y015395D01*
X016458Y015378D01*
X016454Y015361D01*
X016447Y015345D01*
X016437Y015331D01*
X016424Y015318D01*
X016410Y015308D01*
X016394Y015301D01*
X016377Y015297D01*
X016360Y015295D01*
X017010Y015145D02*
X017010Y014895D01*
X018510Y014895D01*
X018510Y015145D01*
X017760Y015145D01*
X017010Y015145D01*
X017760Y015145D02*
X017760Y015595D01*
X017760Y014545D02*
X017760Y013995D01*
X017760Y017145D02*
X017760Y017745D01*
X017460Y017445D02*
X018060Y017445D01*
X016460Y017545D02*
X016410Y017495D01*
X016460Y017545D02*
X016460Y017695D01*
X016458Y017712D01*
X016454Y017729D01*
X016447Y017745D01*
X016437Y017759D01*
X016424Y017772D01*
X016410Y017782D01*
X016394Y017789D01*
X016377Y017793D01*
X016360Y017795D01*
X016610Y020545D02*
X016627Y020547D01*
X016644Y020551D01*
X016660Y020558D01*
X016674Y020568D01*
X016687Y020581D01*
X016697Y020595D01*
X016704Y020611D01*
X016708Y020628D01*
X016710Y020645D01*
X016710Y020795D01*
X016660Y020845D01*
X016660Y022745D01*
X016710Y022795D01*
X016710Y022945D01*
X016708Y022962D01*
X016704Y022979D01*
X016697Y022995D01*
X016687Y023009D01*
X016674Y023022D01*
X016660Y023032D01*
X016644Y023039D01*
X016627Y023043D01*
X016610Y023045D01*
X015910Y023045D02*
X015893Y023043D01*
X015876Y023039D01*
X015860Y023032D01*
X015846Y023022D01*
X015833Y023009D01*
X015823Y022995D01*
X015816Y022979D01*
X015812Y022962D01*
X015810Y022945D01*
X015810Y022795D01*
X015860Y022745D01*
X015860Y020845D01*
X015810Y020795D01*
X015810Y020645D01*
X015812Y020628D01*
X015816Y020611D01*
X015823Y020595D01*
X015833Y020581D01*
X015846Y020568D01*
X015860Y020558D01*
X015876Y020551D01*
X015893Y020547D01*
X015910Y020545D01*
X015735Y020945D02*
X015035Y020945D01*
X015035Y022145D01*
X015735Y022145D01*
X015735Y020945D01*
X015385Y021345D02*
X015385Y021495D01*
X015185Y021495D01*
X015185Y021595D01*
X015385Y021495D02*
X015185Y021895D01*
X015585Y021895D01*
X015385Y021495D01*
X015585Y021495D01*
X015385Y021495D02*
X015385Y022045D01*
X015035Y022345D02*
X015035Y023995D01*
X014485Y024057D02*
X014485Y024215D01*
X015035Y023995D02*
X014984Y024032D01*
X014931Y024067D01*
X014875Y024099D01*
X014818Y024127D01*
X014759Y024151D01*
X014699Y024172D01*
X014638Y024189D01*
X014576Y024203D01*
X014513Y024212D01*
X014450Y024218D01*
X014386Y024220D01*
X014322Y024218D01*
X014259Y024212D01*
X014196Y024203D01*
X014134Y024190D01*
X014073Y024172D01*
X014013Y024152D01*
X013954Y024127D01*
X013897Y024100D01*
X013841Y024068D01*
X013788Y024034D01*
X013737Y023996D01*
X013688Y023955D01*
X013642Y023911D01*
X013598Y023865D01*
X013557Y023816D01*
X013520Y023765D01*
X013485Y023711D01*
X013454Y023656D01*
X013426Y023599D01*
X013402Y023540D01*
X013382Y023480D01*
X013382Y022860D02*
X013402Y022800D01*
X013426Y022741D01*
X013454Y022684D01*
X013485Y022629D01*
X013520Y022575D01*
X013557Y022524D01*
X013598Y022475D01*
X013642Y022429D01*
X013688Y022385D01*
X013737Y022344D01*
X013788Y022306D01*
X013841Y022272D01*
X013897Y022241D01*
X013954Y022213D01*
X014013Y022188D01*
X014073Y022168D01*
X014134Y022150D01*
X014196Y022137D01*
X014259Y022128D01*
X014322Y022122D01*
X014386Y022120D01*
X014450Y022122D01*
X014513Y022128D01*
X014576Y022137D01*
X014638Y022151D01*
X014699Y022168D01*
X014759Y022189D01*
X014818Y022213D01*
X014875Y022241D01*
X014931Y022273D01*
X014984Y022308D01*
X015035Y022345D01*
X014485Y022283D02*
X014485Y022125D01*
X017010Y022145D02*
X017010Y021895D01*
X018510Y021895D01*
X018510Y022145D01*
X017760Y022145D01*
X017010Y022145D01*
X017760Y022145D02*
X017760Y022595D01*
X017760Y021545D02*
X017760Y020995D01*
X017760Y024145D02*
X017760Y024745D01*
X017460Y024445D02*
X018060Y024445D01*
X016502Y010360D02*
X016504Y010418D01*
X016510Y010476D01*
X016520Y010533D01*
X016534Y010589D01*
X016551Y010645D01*
X016572Y010699D01*
X016597Y010751D01*
X016626Y010802D01*
X016658Y010850D01*
X016693Y010896D01*
X016731Y010940D01*
X016772Y010981D01*
X016816Y011019D01*
X016862Y011054D01*
X016910Y011086D01*
X016961Y011115D01*
X017013Y011140D01*
X017067Y011161D01*
X017123Y011178D01*
X017179Y011192D01*
X017236Y011202D01*
X017294Y011208D01*
X017352Y011210D01*
X017410Y011208D01*
X017468Y011202D01*
X017525Y011192D01*
X017581Y011178D01*
X017637Y011161D01*
X017691Y011140D01*
X017743Y011115D01*
X017794Y011086D01*
X017842Y011054D01*
X017888Y011019D01*
X017932Y010981D01*
X017973Y010940D01*
X018011Y010896D01*
X018046Y010850D01*
X018078Y010802D01*
X018107Y010751D01*
X018132Y010699D01*
X018153Y010645D01*
X018170Y010589D01*
X018184Y010533D01*
X018194Y010476D01*
X018200Y010418D01*
X018202Y010360D01*
X018200Y010302D01*
X018194Y010244D01*
X018184Y010187D01*
X018170Y010131D01*
X018153Y010075D01*
X018132Y010021D01*
X018107Y009969D01*
X018078Y009918D01*
X018046Y009870D01*
X018011Y009824D01*
X017973Y009780D01*
X017932Y009739D01*
X017888Y009701D01*
X017842Y009666D01*
X017794Y009634D01*
X017743Y009605D01*
X017691Y009580D01*
X017637Y009559D01*
X017581Y009542D01*
X017525Y009528D01*
X017468Y009518D01*
X017410Y009512D01*
X017352Y009510D01*
X017294Y009512D01*
X017236Y009518D01*
X017179Y009528D01*
X017123Y009542D01*
X017067Y009559D01*
X017013Y009580D01*
X016961Y009605D01*
X016910Y009634D01*
X016862Y009666D01*
X016816Y009701D01*
X016772Y009739D01*
X016731Y009780D01*
X016693Y009824D01*
X016658Y009870D01*
X016626Y009918D01*
X016597Y009969D01*
X016572Y010021D01*
X016551Y010075D01*
X016534Y010131D01*
X016520Y010187D01*
X016510Y010244D01*
X016504Y010302D01*
X016502Y010360D01*
X017385Y009070D02*
X017385Y005270D01*
X019385Y005270D01*
X019385Y009070D01*
X017385Y009070D01*
X018385Y008170D02*
X018385Y007170D01*
X018635Y007670D01*
X018135Y007670D01*
X018385Y007170D01*
X018635Y007170D01*
X018385Y007170D02*
X018135Y007170D01*
X018385Y007170D02*
X018385Y006720D01*
X017260Y004845D02*
X016260Y004845D01*
X016260Y003245D01*
X017260Y003245D01*
X017260Y004845D01*
X016760Y004295D02*
X016760Y004045D01*
X016510Y004045D01*
X016760Y004045D02*
X017010Y004045D01*
X016760Y004045D02*
X017010Y003645D01*
X016510Y003645D01*
X016760Y004045D01*
X016760Y003445D01*
X016260Y003245D02*
X016260Y004845D01*
X015260Y004845D01*
X015260Y003245D01*
X016260Y003245D01*
X016010Y003645D02*
X015760Y004045D01*
X015510Y004045D01*
X015760Y004045D02*
X015760Y004295D01*
X015760Y004045D02*
X016010Y004045D01*
X015760Y004045D02*
X015760Y003445D01*
X016010Y003645D02*
X015510Y003645D01*
X015760Y004045D01*
X015260Y004595D02*
X014260Y004595D01*
X014260Y002995D01*
X015260Y002995D01*
X015260Y004595D01*
X015010Y004195D02*
X014760Y003795D01*
X015010Y003795D01*
X014760Y003795D02*
X014760Y003545D01*
X014760Y003795D02*
X014510Y003795D01*
X014760Y003795D02*
X014510Y004195D01*
X015010Y004195D01*
X014760Y004395D02*
X014760Y003795D01*
X014260Y004095D02*
X013260Y004095D01*
X013260Y002495D01*
X014260Y002495D01*
X014260Y004095D01*
X014010Y003695D02*
X013760Y003295D01*
X014010Y003295D01*
X013760Y003295D02*
X013760Y003895D01*
X013510Y003695D02*
X014010Y003695D01*
X013760Y003295D02*
X013510Y003295D01*
X013760Y003295D02*
X013760Y003045D01*
X013760Y003295D02*
X013510Y003695D01*
X007660Y002370D02*
X006360Y002370D01*
X006334Y002368D01*
X006308Y002363D01*
X006283Y002355D01*
X006260Y002343D01*
X006238Y002329D01*
X006219Y002311D01*
X006201Y002292D01*
X006187Y002270D01*
X006175Y002247D01*
X006167Y002222D01*
X006162Y002196D01*
X006160Y002170D01*
X006510Y001920D02*
X006890Y001920D01*
X007140Y001920D02*
X007510Y001920D01*
X007860Y001670D02*
X007858Y001644D01*
X007853Y001618D01*
X007845Y001593D01*
X007833Y001570D01*
X007819Y001548D01*
X007801Y001529D01*
X007782Y001511D01*
X007760Y001497D01*
X007737Y001485D01*
X007712Y001477D01*
X007686Y001472D01*
X007660Y001470D01*
X006360Y001470D01*
X006334Y001472D01*
X006308Y001477D01*
X006283Y001485D01*
X006260Y001497D01*
X006238Y001511D01*
X006219Y001529D01*
X006201Y001548D01*
X006187Y001570D01*
X006175Y001593D01*
X006167Y001618D01*
X006162Y001644D01*
X006160Y001670D01*
X005660Y002445D02*
X005660Y005145D01*
X005658Y005204D01*
X005652Y005262D01*
X005643Y005321D01*
X005629Y005378D01*
X005612Y005434D01*
X005591Y005489D01*
X005567Y005543D01*
X005539Y005595D01*
X005508Y005645D01*
X005474Y005693D01*
X005437Y005738D01*
X005396Y005781D01*
X005353Y005822D01*
X005308Y005859D01*
X005260Y005893D01*
X005210Y005924D01*
X005158Y005952D01*
X005104Y005976D01*
X005049Y005997D01*
X004993Y006014D01*
X004936Y006028D01*
X004877Y006037D01*
X004819Y006043D01*
X004760Y006045D01*
X004701Y006043D01*
X004643Y006037D01*
X004584Y006028D01*
X004527Y006014D01*
X004471Y005997D01*
X004416Y005976D01*
X004362Y005952D01*
X004310Y005924D01*
X004260Y005893D01*
X004212Y005859D01*
X004167Y005822D01*
X004124Y005781D01*
X004083Y005738D01*
X004046Y005693D01*
X004012Y005645D01*
X003981Y005595D01*
X003953Y005543D01*
X003929Y005489D01*
X003908Y005434D01*
X003891Y005378D01*
X003877Y005321D01*
X003868Y005262D01*
X003862Y005204D01*
X003860Y005145D01*
X003860Y002445D01*
X003862Y002386D01*
X003868Y002328D01*
X003877Y002269D01*
X003891Y002212D01*
X003908Y002156D01*
X003929Y002101D01*
X003953Y002047D01*
X003981Y001995D01*
X004012Y001945D01*
X004046Y001897D01*
X004083Y001852D01*
X004124Y001809D01*
X004167Y001768D01*
X004212Y001731D01*
X004260Y001697D01*
X004310Y001666D01*
X004362Y001638D01*
X004416Y001614D01*
X004471Y001593D01*
X004527Y001576D01*
X004584Y001562D01*
X004643Y001553D01*
X004701Y001547D01*
X004760Y001545D01*
X004819Y001547D01*
X004877Y001553D01*
X004936Y001562D01*
X004993Y001576D01*
X005049Y001593D01*
X005104Y001614D01*
X005158Y001638D01*
X005210Y001666D01*
X005260Y001697D01*
X005308Y001731D01*
X005353Y001768D01*
X005396Y001809D01*
X005437Y001852D01*
X005474Y001897D01*
X005508Y001945D01*
X005539Y001995D01*
X005567Y002047D01*
X005591Y002101D01*
X005612Y002156D01*
X005629Y002212D01*
X005643Y002269D01*
X005652Y002328D01*
X005658Y002386D01*
X005660Y002445D01*
X007660Y002370D02*
X007686Y002368D01*
X007712Y002363D01*
X007737Y002355D01*
X007760Y002343D01*
X007782Y002329D01*
X007801Y002311D01*
X007819Y002292D01*
X007833Y002270D01*
X007845Y002247D01*
X007853Y002222D01*
X007858Y002196D01*
X007860Y002170D01*
X005410Y006345D02*
X004110Y006345D01*
X004084Y006347D01*
X004058Y006352D01*
X004033Y006360D01*
X004010Y006372D01*
X003988Y006386D01*
X003969Y006404D01*
X003951Y006423D01*
X003937Y006445D01*
X003925Y006468D01*
X003917Y006493D01*
X003912Y006519D01*
X003910Y006545D01*
X004260Y006795D02*
X004630Y006795D01*
X004880Y006795D02*
X005260Y006795D01*
X005610Y006545D02*
X005608Y006519D01*
X005603Y006493D01*
X005595Y006468D01*
X005583Y006445D01*
X005569Y006423D01*
X005551Y006404D01*
X005532Y006386D01*
X005510Y006372D01*
X005487Y006360D01*
X005462Y006352D01*
X005436Y006347D01*
X005410Y006345D01*
X005610Y007045D02*
X005608Y007071D01*
X005603Y007097D01*
X005595Y007122D01*
X005583Y007145D01*
X005569Y007167D01*
X005551Y007186D01*
X005532Y007204D01*
X005510Y007218D01*
X005487Y007230D01*
X005462Y007238D01*
X005436Y007243D01*
X005410Y007245D01*
X004110Y007245D01*
X004084Y007243D01*
X004058Y007238D01*
X004033Y007230D01*
X004010Y007218D01*
X003988Y007204D01*
X003969Y007186D01*
X003951Y007167D01*
X003937Y007145D01*
X003925Y007122D01*
X003917Y007097D01*
X003912Y007071D01*
X003910Y007045D01*
X004260Y009195D02*
X004260Y009675D01*
X004260Y009925D02*
X004260Y010395D01*
X002910Y012295D02*
X002912Y012353D01*
X002918Y012411D01*
X002928Y012468D01*
X002942Y012524D01*
X002959Y012580D01*
X002980Y012634D01*
X003005Y012686D01*
X003034Y012737D01*
X003066Y012785D01*
X003101Y012831D01*
X003139Y012875D01*
X003180Y012916D01*
X003224Y012954D01*
X003270Y012989D01*
X003318Y013021D01*
X003369Y013050D01*
X003421Y013075D01*
X003475Y013096D01*
X003531Y013113D01*
X003587Y013127D01*
X003644Y013137D01*
X003702Y013143D01*
X003760Y013145D01*
X003818Y013143D01*
X003876Y013137D01*
X003933Y013127D01*
X003989Y013113D01*
X004045Y013096D01*
X004099Y013075D01*
X004151Y013050D01*
X004202Y013021D01*
X004250Y012989D01*
X004296Y012954D01*
X004340Y012916D01*
X004381Y012875D01*
X004419Y012831D01*
X004454Y012785D01*
X004486Y012737D01*
X004515Y012686D01*
X004540Y012634D01*
X004561Y012580D01*
X004578Y012524D01*
X004592Y012468D01*
X004602Y012411D01*
X004608Y012353D01*
X004610Y012295D01*
X004608Y012237D01*
X004602Y012179D01*
X004592Y012122D01*
X004578Y012066D01*
X004561Y012010D01*
X004540Y011956D01*
X004515Y011904D01*
X004486Y011853D01*
X004454Y011805D01*
X004419Y011759D01*
X004381Y011715D01*
X004340Y011674D01*
X004296Y011636D01*
X004250Y011601D01*
X004202Y011569D01*
X004151Y011540D01*
X004099Y011515D01*
X004045Y011494D01*
X003989Y011477D01*
X003933Y011463D01*
X003876Y011453D01*
X003818Y011447D01*
X003760Y011445D01*
X003702Y011447D01*
X003644Y011453D01*
X003587Y011463D01*
X003531Y011477D01*
X003475Y011494D01*
X003421Y011515D01*
X003369Y011540D01*
X003318Y011569D01*
X003270Y011601D01*
X003224Y011636D01*
X003180Y011674D01*
X003139Y011715D01*
X003101Y011759D01*
X003066Y011805D01*
X003034Y011853D01*
X003005Y011904D01*
X002980Y011956D01*
X002959Y012010D01*
X002942Y012066D01*
X002928Y012122D01*
X002918Y012179D01*
X002912Y012237D01*
X002910Y012295D01*
D12*
X004060Y005145D02*
X004060Y002445D01*
X004062Y002394D01*
X004067Y002343D01*
X004077Y002293D01*
X004090Y002243D01*
X004106Y002195D01*
X004126Y002148D01*
X004150Y002102D01*
X004176Y002059D01*
X004206Y002017D01*
X004239Y001978D01*
X004274Y001941D01*
X004312Y001907D01*
X004353Y001876D01*
X004395Y001847D01*
X004440Y001822D01*
X004486Y001801D01*
X004534Y001782D01*
X004583Y001768D01*
X004633Y001757D01*
X004683Y001749D01*
X004734Y001745D01*
X004786Y001745D01*
X004837Y001749D01*
X004887Y001757D01*
X004937Y001768D01*
X004986Y001782D01*
X005034Y001801D01*
X005080Y001822D01*
X005125Y001847D01*
X005167Y001876D01*
X005208Y001907D01*
X005246Y001941D01*
X005281Y001978D01*
X005314Y002017D01*
X005344Y002059D01*
X005370Y002102D01*
X005394Y002148D01*
X005414Y002195D01*
X005430Y002243D01*
X005443Y002293D01*
X005453Y002343D01*
X005458Y002394D01*
X005460Y002445D01*
X005460Y005145D01*
X005458Y005196D01*
X005453Y005247D01*
X005443Y005297D01*
X005430Y005347D01*
X005414Y005395D01*
X005394Y005442D01*
X005370Y005488D01*
X005344Y005531D01*
X005314Y005573D01*
X005281Y005612D01*
X005246Y005649D01*
X005208Y005683D01*
X005167Y005714D01*
X005125Y005743D01*
X005080Y005768D01*
X005034Y005789D01*
X004986Y005808D01*
X004937Y005822D01*
X004887Y005833D01*
X004837Y005841D01*
X004786Y005845D01*
X004734Y005845D01*
X004683Y005841D01*
X004633Y005833D01*
X004583Y005822D01*
X004534Y005808D01*
X004486Y005789D01*
X004440Y005768D01*
X004395Y005743D01*
X004353Y005714D01*
X004312Y005683D01*
X004274Y005649D01*
X004239Y005612D01*
X004206Y005573D01*
X004176Y005531D01*
X004150Y005488D01*
X004126Y005442D01*
X004106Y005395D01*
X004090Y005347D01*
X004077Y005297D01*
X004067Y005247D01*
X004062Y005196D01*
X004060Y005145D01*
D13*
X004630Y006495D02*
X004630Y006795D01*
X004630Y007095D01*
X004880Y007095D02*
X004880Y006795D01*
X004880Y006495D01*
X006130Y008545D02*
X006130Y008795D01*
X006130Y009045D01*
X006380Y009045D02*
X006380Y008795D01*
X006380Y008545D01*
X007880Y007420D02*
X007880Y007170D01*
X007880Y006920D01*
X008130Y006920D02*
X008130Y007170D01*
X008130Y007420D01*
X007010Y010675D02*
X006760Y010675D01*
X006510Y010675D01*
X006510Y010925D02*
X006760Y010925D01*
X007010Y010925D01*
X004510Y009925D02*
X004260Y009925D01*
X004010Y009925D01*
X004010Y009675D02*
X004260Y009675D01*
X004510Y009675D01*
X006890Y002220D02*
X006890Y001920D01*
X006890Y001620D01*
X007140Y001620D02*
X007140Y001920D01*
X007140Y002220D01*
D14*
X018385Y005920D03*
D15*
X018385Y005045D03*
X018385Y009295D03*
D16*
X016760Y004595D03*
X015760Y004595D03*
X014760Y003245D03*
X013760Y002745D03*
D17*
X013760Y002120D03*
X014760Y002620D03*
X015760Y002870D03*
X016760Y002870D03*
X016760Y005220D03*
X015760Y005220D03*
X014760Y004970D03*
X013760Y004470D03*
D18*
X007635Y017545D03*
X012885Y022295D03*
D19*
X017760Y021570D03*
X017760Y014570D03*
D20*
G36*
X016686Y008996D02*
X017034Y009953D01*
X017334Y009844D01*
X016986Y008887D01*
X016686Y008996D01*
G37*
X004760Y012295D03*
D21*
X012685Y011420D03*
X013685Y012420D03*
D22*
X014310Y012420D03*
X013310Y011420D03*
X011960Y012420D03*
X010960Y011420D03*
D23*
X011480Y010420D02*
X012540Y010420D01*
X011885Y014045D02*
X012634Y014795D01*
X010915Y015420D02*
X007855Y015420D01*
X008480Y020545D02*
X013540Y020545D01*
X014003Y019436D02*
X017016Y018904D01*
X018944Y019820D02*
X018575Y012770D01*
X012010Y005200D02*
X012010Y004140D01*
X005290Y007795D02*
X004230Y007795D01*
D24*
X014510Y014670D03*
X015385Y021170D03*
D25*
X015385Y020670D03*
X015385Y022420D03*
X014510Y015920D03*
X014510Y014170D03*
D26*
X006630Y014795D03*
X006630Y018295D03*
X006630Y021795D03*
X003283Y021795D03*
X003283Y018295D03*
X003283Y014795D03*
D27*
X004956Y013515D03*
X004956Y016075D03*
X004956Y017015D03*
X004956Y019575D03*
X004956Y020515D03*
X004956Y023075D03*
M02*
